<svg width="136" height="38" viewBox="0 0 136 38" fill="none" xmlns="http://www.w3.org/2000/svg">
<rect x="0.5" y="0.5" width="135" height="37" rx="9.5" stroke="white" stroke-opacity="0.4"/>
<path d="M39.5995 18.5259C39.5755 15.9964 41.6606 14.7643 41.7637 14.7058C41.348 14.113 40.8005 13.6251 40.1644 13.2805C39.5284 12.9359 38.8211 12.744 38.0984 12.72C36.556 12.5583 35.0618 13.6459 34.2751 13.6459C33.4885 13.6459 32.2656 12.7373 30.9637 12.7648C30.1187 12.7902 29.2947 13.0346 28.5722 13.4744C27.8497 13.9141 27.2534 14.5341 26.8415 15.2737C25.069 18.3711 26.3915 22.8794 28.0919 25.3711C28.9438 26.5894 29.94 27.9522 31.2385 27.904C32.5369 27.8559 32.9904 27.0884 34.5259 27.0884C36.0614 27.0884 36.4942 27.904 37.8236 27.873C39.153 27.8421 40.0495 26.6479 40.8705 25.4158C41.4933 24.5461 41.9723 23.5816 42.2892 22.5594C41.4961 22.2246 40.8184 21.6639 40.3403 20.9469C39.8622 20.2299 39.6046 19.3882 39.5995 18.5259Z" fill="white"/>
<path d="M37.0912 11.0849C37.8397 10.1903 38.2095 9.03804 38.1217 7.87402C36.9838 7.99255 35.9324 8.53701 35.1778 9.39859C34.5458 10.1385 33.979 11.3534 34.1267 12.496C35.2328 12.5786 36.3767 11.9281 37.0912 11.0849Z" fill="white"/>
<path d="M58.7054 23.0341H57.0044L56.0751 20.0995H52.834L51.9474 23.0341H50.2891L53.5006 13.0459H55.4709L58.7054 23.0341ZM55.8091 18.8757L54.9652 16.2667C54.8776 16.0013 54.7101 15.3741 54.4627 14.3849H54.4332C54.3347 14.8082 54.1771 15.4355 53.9603 16.2667L53.1328 18.8757H55.8091Z" fill="white"/>
<path d="M66.9748 19.349C66.9748 20.5773 66.6465 21.5455 65.9897 22.254C65.7111 22.5602 65.3704 22.8032 64.9903 22.9666C64.6103 23.13 64.1998 23.2101 63.7863 23.2015C62.8406 23.2015 62.1444 22.8725 61.7438 22.1816H61.7142V25.9748H60.1183V18.2074C60.1183 17.4376 60.0986 16.648 60.0592 15.8386H61.4647L61.5533 16.9803H61.5829C61.8251 16.6094 62.1505 16.3002 62.533 16.0774C62.9154 15.8546 63.3445 15.7244 63.7861 15.6969C64.2277 15.6694 64.6696 15.7455 65.0766 15.9192C65.4837 16.0929 65.8447 16.3593 66.1309 16.6973C66.7242 17.4493 67.0242 18.3918 66.9748 19.349ZM65.333 19.4082C65.3584 18.7952 65.1932 18.1893 64.8601 17.6744C64.7055 17.4499 64.4976 17.2674 64.2552 17.1434C64.0127 17.0193 63.7432 16.9576 63.471 16.9638C63.0783 16.9639 62.6982 17.1025 62.3973 17.3553C62.0773 17.6185 61.8562 17.9827 61.77 18.3883C61.7259 18.5471 61.7005 18.7106 61.6945 18.8753V20.0728C61.6836 20.5568 61.8561 21.027 62.1772 21.3887C62.332 21.5663 62.5243 21.7071 62.7401 21.801C62.9559 21.8949 63.1899 21.9395 63.4251 21.9315C63.6988 21.942 63.9708 21.8837 64.2163 21.7618C64.4618 21.64 64.6729 21.4586 64.8305 21.2341C65.1844 20.6955 65.3602 20.059 65.333 19.4148V19.4082Z" fill="white"/>
<path d="M75.2296 19.3488C75.2296 20.5771 74.9012 21.5453 74.2445 22.2538C73.9659 22.56 73.6251 22.803 73.2451 22.9664C72.8651 23.1298 72.4545 23.2099 72.0411 23.2013C71.0909 23.2013 70.4101 22.8613 69.9985 22.1814H69.969V25.9746H68.3731V18.2072C68.3731 17.4374 68.3534 16.6478 68.314 15.8384H69.7194L69.8081 16.9801H69.8376C70.0795 16.6086 70.4046 16.2989 70.7871 16.0757C71.1696 15.8525 71.5989 15.7219 72.0407 15.6944C72.4826 15.6669 72.9247 15.7433 73.3318 15.9174C73.7389 16.0915 74.0998 16.3585 74.3857 16.6971C74.979 17.4491 75.2789 18.3916 75.2296 19.3488ZM73.5877 19.408C73.6132 18.795 73.448 18.1891 73.1149 17.6742C72.9603 17.4497 72.7524 17.2672 72.5099 17.1432C72.2675 17.0191 71.998 16.9574 71.7258 16.9636C71.333 16.9631 70.9526 17.1018 70.652 17.3551C70.3321 17.6183 70.111 17.9825 70.0248 18.3881C69.9807 18.5469 69.9553 18.7104 69.9493 18.8751V20.0726C69.9387 20.5559 70.1099 21.0256 70.4287 21.3885C70.5844 21.5658 70.7774 21.7064 70.9936 21.8003C71.2099 21.8941 71.4443 21.9388 71.6798 21.9313C71.9536 21.9418 72.2256 21.8835 72.4711 21.7616C72.7165 21.6398 72.9277 21.4584 73.0853 21.2339C73.4438 20.6969 73.6242 20.0603 73.6008 19.4146L73.5877 19.408Z" fill="white"/>
<path d="M84.471 20.2397C84.4845 20.629 84.4123 21.0164 84.2597 21.3746C84.107 21.7327 83.8776 22.053 83.5876 22.3124C82.9309 22.8958 82.0256 23.1875 80.8719 23.1875C79.969 23.2305 79.0725 23.0149 78.2876 22.5657L78.6554 21.23C79.3481 21.6512 80.1437 21.8721 80.954 21.8682C81.4555 21.8987 81.952 21.7546 82.3595 21.4603C82.5228 21.3304 82.6534 21.1639 82.7407 20.9742C82.828 20.7844 82.8695 20.5768 82.8619 20.368C82.8662 20.1782 82.8318 19.9895 82.7606 19.8135C82.6895 19.6376 82.5831 19.4781 82.4481 19.3449C82.0466 18.9963 81.5785 18.7332 81.0722 18.5717C79.3209 17.9137 78.4452 16.9586 78.4452 15.7062C78.4357 15.3225 78.5132 14.9417 78.6719 14.5924C78.8306 14.243 79.0663 13.9344 79.3614 13.6896C80.0514 13.1375 80.9194 12.8577 81.8012 12.9032C82.5825 12.8759 83.3588 13.0384 84.0638 13.377L83.6631 14.6929C83.0761 14.381 82.4196 14.2237 81.7553 14.2357C81.2814 14.2071 80.8137 14.3547 80.4418 14.6502C80.3138 14.7631 80.2118 14.9024 80.1426 15.0586C80.0734 15.2148 80.0388 15.3841 80.0411 15.5549C80.0355 15.744 80.0741 15.9317 80.154 16.1031C80.2338 16.2745 80.3526 16.4248 80.5009 16.5419C80.9397 16.8739 81.4285 17.1338 81.949 17.3117C82.6656 17.5646 83.3141 17.9801 83.8438 18.5257C84.2565 19.0001 84.4799 19.6105 84.471 20.2397Z" fill="white"/>
<path d="M89.7519 17.0393H87.9885V20.5364C87.9885 21.4247 88.2993 21.8688 88.9211 21.8688C89.1595 21.8728 89.3976 21.8485 89.6304 21.7964L89.6763 23.0104C89.275 23.142 88.8538 23.2022 88.4318 23.1881C88.1585 23.2032 87.8851 23.1594 87.6301 23.0595C87.3752 22.9596 87.1446 22.8059 86.9541 22.609C86.5994 22.223 86.4221 21.576 86.4221 20.668V17.0491H85.3615V15.8483H86.4123V14.5323L87.9786 14.0586V15.8516H89.7387L89.7519 17.0393Z" fill="white"/>
<path d="M97.7 19.3785C97.7389 20.3751 97.3998 21.3495 96.751 22.1059C96.4188 22.4687 96.0117 22.7547 95.5581 22.9439C95.1044 23.1331 94.615 23.221 94.1239 23.2014C93.6525 23.2225 93.1822 23.1393 92.7464 22.958C92.3105 22.7766 91.9199 22.5015 91.602 22.152C90.9657 21.4175 90.6302 20.469 90.6629 19.497C90.6224 18.4928 90.9692 17.5114 91.6316 16.7565C91.9636 16.3999 92.3691 16.12 92.8199 15.9359C93.2706 15.7519 93.7559 15.6681 94.2422 15.6906C94.7171 15.671 95.1907 15.7551 95.6301 15.9368C96.0695 16.1186 96.4642 16.3938 96.7871 16.7433C97.4141 17.4739 97.7405 18.4159 97.7 19.3785ZM96.0417 19.4312C96.0578 18.8322 95.9089 18.2404 95.6115 17.7205C95.4766 17.4569 95.2706 17.2363 95.017 17.084C94.7633 16.9316 94.4722 16.8535 94.1765 16.8585C93.8763 16.8506 93.58 16.9273 93.3211 17.0796C93.0623 17.232 92.8512 17.454 92.7119 17.7205C92.4132 18.2505 92.2655 18.8524 92.285 19.4608C92.2674 20.0585 92.4151 20.6495 92.7119 21.1683C92.8511 21.432 93.0603 21.6521 93.3164 21.8042C93.5725 21.9563 93.8656 22.0345 94.1634 22.0302C94.4602 22.0328 94.7518 21.9523 95.0054 21.7977C95.259 21.6431 95.4643 21.4205 95.5984 21.1551C95.9039 20.6332 96.0574 20.0361 96.0417 19.4312Z" fill="white"/>
<path d="M102.892 17.2431C102.725 17.2134 102.556 17.1992 102.386 17.2003C102.131 17.1868 101.877 17.2383 101.647 17.3499C101.418 17.4615 101.22 17.6296 101.073 17.8386C100.793 18.2582 100.653 18.7556 100.672 19.2598V23.0333H99.0894V18.0985C99.0894 17.2694 99.0697 16.5139 99.0303 15.8318H100.423L100.482 17.2069H100.524C100.676 16.7585 100.953 16.3633 101.322 16.0686C101.657 15.8198 102.062 15.6848 102.478 15.6837C102.612 15.6827 102.746 15.6926 102.879 15.7133L102.892 17.2431Z" fill="white"/>
<path d="M110.036 19.0851C110.04 19.3277 110.02 19.5701 109.977 19.8088H105.186C105.173 20.1172 105.229 20.4246 105.349 20.709C105.469 20.9934 105.65 21.2476 105.879 21.4538C106.325 21.804 106.882 21.9825 107.448 21.9572C108.109 21.9695 108.766 21.8579 109.386 21.6282L109.635 22.7402C108.871 23.0524 108.05 23.2035 107.225 23.1843C106.743 23.2116 106.26 23.1379 105.808 22.968C105.356 22.7981 104.944 22.5356 104.598 22.1973C104.273 21.8436 104.021 21.4289 103.857 20.9772C103.693 20.5254 103.62 20.0456 103.643 19.5654C103.607 18.5839 103.922 17.6219 104.529 16.8512C104.829 16.4748 105.213 16.1742 105.649 15.9736C106.086 15.773 106.564 15.678 107.045 15.6965C107.503 15.6711 107.96 15.7639 108.372 15.9661C108.784 16.1683 109.138 16.4731 109.399 16.8512C109.832 17.5142 110.054 18.2931 110.036 19.0851ZM108.512 18.6706C108.534 18.2388 108.427 17.8103 108.204 17.4401C108.071 17.2253 107.882 17.0506 107.657 16.9348C107.433 16.8189 107.182 16.7661 106.93 16.7822C106.68 16.7787 106.434 16.8369 106.212 16.9516C105.99 17.0664 105.8 17.2342 105.659 17.4401C105.385 17.8015 105.221 18.2345 105.186 18.687L108.512 18.6706Z" fill="white"/>
</svg>
