<svg width="136" height="38" viewBox="0 0 136 38" fill="none" xmlns="http://www.w3.org/2000/svg">
<rect x="0.5" y="0.5" width="135" height="37" rx="9.5" stroke="white" stroke-opacity="0.4"/>
<path fill-rule="evenodd" clip-rule="evenodd" d="M73.0446 25.5428C72.6683 25.1783 72.3572 24.7519 72.1247 24.2821L73.4605 23.7136C73.5696 23.9408 73.7069 24.1532 73.8694 24.3457C74.0389 24.5397 74.2475 24.6955 74.4813 24.8033C74.7151 24.911 74.969 24.9681 75.2264 24.9708C75.4963 24.973 75.7633 24.9141 76.0074 24.7985C76.2516 24.683 76.4665 24.5137 76.6362 24.3033C76.9064 23.8901 77.0396 23.402 77.0169 22.9085V22.3859C76.0652 23.6147 73.9786 23.4452 72.8085 22.1704C72.2069 21.4906 71.8772 20.6123 71.8824 19.7038C71.8876 18.7954 72.2274 17.9208 72.8366 17.2479C74.0808 16.012 75.9278 15.8567 77.0134 17.0255V16.4357H78.462V22.739C78.462 24.3457 77.8734 25.2532 77.1438 25.7793C76.5678 26.159 75.891 26.3559 75.2017 26.3444C74.4043 26.3556 73.6314 26.0685 73.034 25.5392L73.0446 25.5428ZM107.752 25.8959L109.162 22.5766L106.694 16.8242H108.104L109.867 20.9205L111.59 16.8242H113L109.179 25.8959H107.752ZM101.055 22.7178C100.658 22.3036 100.436 21.7523 100.435 21.1782C100.424 20.6765 100.609 20.1903 100.949 19.8222C101.256 19.5271 101.619 19.298 102.018 19.1492C102.416 19.0004 102.84 18.935 103.265 18.9571C103.785 18.9435 104.3 19.0652 104.759 19.3102C104.767 19.1185 104.734 18.9273 104.662 18.7492C104.591 18.5712 104.483 18.4101 104.345 18.2768C104.207 18.1435 104.043 18.0408 103.863 17.9755C103.683 17.9102 103.491 17.8837 103.3 17.8977C103.006 17.8838 102.715 17.9625 102.468 18.1227C102.221 18.283 102.03 18.5167 101.922 18.7911L100.657 18.279C100.882 17.6646 101.591 16.6194 103.268 16.6194C103.666 16.6088 104.062 16.6788 104.432 16.825C104.802 16.9712 105.139 17.1908 105.422 17.4705C105.951 18.0319 106.127 18.7311 106.127 19.6633V23.1486H104.745V22.5236C104.537 22.7751 104.279 22.9808 103.987 23.1275C103.624 23.2905 103.229 23.3701 102.831 23.3605C102.185 23.3723 101.557 23.1432 101.069 22.7178H101.055ZM56.8806 19.7304C56.8868 19.0479 57.0946 18.3825 57.4777 17.8181C57.8608 17.2538 58.4021 16.8156 59.0334 16.5589C59.6646 16.3023 60.3576 16.2385 61.0249 16.3757C61.6923 16.513 62.3041 16.845 62.7834 17.3301C63.2627 17.8152 63.5879 18.4315 63.7181 19.1015C63.8483 19.7714 63.7776 20.465 63.515 21.0948C63.2524 21.7246 62.8096 22.2624 62.2424 22.6405C61.6752 23.0185 61.0089 23.2199 60.3277 23.2192C59.872 23.2192 59.4209 23.1287 59.0003 22.953C58.5798 22.7772 58.1982 22.5197 57.8777 22.1953C57.5571 21.8708 57.3039 21.486 57.1328 21.0629C56.9616 20.6398 56.8759 20.1869 56.8806 19.7304ZM64.3669 19.7304C64.3732 19.048 64.5809 18.3828 64.9638 17.8185C65.3468 17.2542 65.8878 16.816 66.5189 16.5592C67.1499 16.3024 67.8427 16.2385 68.51 16.3755C69.1772 16.5124 69.7891 16.8442 70.2685 17.3289C70.7479 17.8136 71.0734 18.4296 71.204 19.0993C71.3346 19.7691 71.2645 20.4625 71.0024 21.0924C70.7403 21.7222 70.298 22.2603 69.7313 22.6387C69.1645 23.0172 68.4987 23.2192 67.8175 23.2192C67.3616 23.2197 66.9101 23.1296 66.4891 22.954C66.0682 22.7785 65.6862 22.5211 65.3652 22.1966C65.0443 21.8721 64.7908 21.487 64.6195 21.0637C64.4481 20.6403 64.3623 20.1872 64.3669 19.7304ZM47.5332 21.5631C46.5395 20.545 45.9883 19.1743 46.0002 17.7504C46.0121 16.3265 46.586 14.9652 47.5966 13.9639C48.0945 13.4592 48.688 13.0592 49.3423 12.7875C49.9966 12.5159 50.6985 12.378 51.4068 12.3819C52.7695 12.3892 54.0791 12.9127 55.0724 13.8474L54.0397 14.9314C53.6849 14.5833 53.265 14.3088 52.8039 14.1238C52.3429 13.9388 51.8499 13.847 51.3534 13.8535C50.8568 13.8601 50.3664 13.965 49.9104 14.1621C49.4544 14.3592 49.0418 14.6447 48.6963 15.0021C47.9791 15.7446 47.5751 16.7356 47.5686 17.7688C47.562 18.8021 47.9533 19.7981 48.6611 20.5497C49.0097 20.9209 49.4289 21.2183 49.8942 21.4245C50.3594 21.6306 50.8612 21.7412 51.3698 21.7497C51.8784 21.7583 52.3837 21.6646 52.8555 21.4743C53.3274 21.2839 53.7564 21.0008 54.1172 20.6415C54.5714 20.1208 54.8447 19.4665 54.8962 18.777H51.3962V17.2974H56.3307C56.3929 17.6695 56.42 18.0467 56.4118 18.4239C56.3989 19.6683 55.9211 20.8627 55.0724 21.7715C54.6004 22.2418 54.0382 22.6117 53.4198 22.8587C52.8013 23.1057 52.1394 23.2247 51.4738 23.2087C50.0013 23.1967 48.5925 22.6057 47.5508 21.5631H47.5332ZM82.5576 22.1846C81.9628 21.499 81.6352 20.6211 81.6352 19.7127C81.6352 18.8043 81.9628 17.9265 82.5576 17.2409C82.8416 16.9219 83.1897 16.6667 83.5791 16.492C83.9684 16.3172 84.3903 16.2269 84.8169 16.2269C85.2436 16.2269 85.6654 16.3172 86.0548 16.492C86.4441 16.6667 86.7922 16.9219 87.0762 17.2409C87.463 17.7189 87.7625 18.2617 87.9609 18.8441L83.3789 20.7827C83.5211 21.098 83.751 21.3656 84.041 21.5535C84.331 21.7414 84.6689 21.8415 85.0143 21.8421C85.7192 21.8421 86.2197 21.6019 86.7343 20.871L87.9362 21.6832C87.7991 21.8587 87.6533 22.0273 87.4992 22.1881C86.2726 23.5476 83.8018 23.5476 82.5647 22.1881L82.5576 22.1846ZM91.1965 23.1592V13.978H94.1467C95.909 13.978 97.266 15.2246 97.266 16.7607C97.2548 17.5075 96.949 18.2194 96.4153 18.7409C95.8816 19.2623 95.1635 19.5508 94.4181 19.5432H92.5958V23.1627L91.1965 23.1592ZM98.1824 23.1592V13.978H99.5922V23.1592H98.1824ZM79.4559 23.0109V12.7315H80.9892V23.0109H79.4559ZM104.756 20.4649C104.358 20.227 103.901 20.1047 103.438 20.1118C102.44 20.1118 101.88 20.6168 101.88 21.1712C101.88 21.7856 102.468 22.0892 103.015 22.0892C103.815 22.0892 104.756 21.4254 104.756 20.4508V20.4649ZM62.2521 19.7304C62.2521 18.7275 61.5472 17.6117 60.3277 17.6117C59.1081 17.6117 58.4032 18.7134 58.4032 19.7304C58.4032 20.7474 59.1081 21.8491 60.3277 21.8491C61.5472 21.8491 62.2521 20.7439 62.2521 19.7304ZM69.742 19.7304C69.742 18.7275 69.0371 17.6117 67.8175 17.6117C66.598 17.6117 65.8896 18.7134 65.8896 19.7304C65.8896 20.7474 66.5945 21.8491 67.8175 21.8491C69.0406 21.8491 69.742 20.7439 69.742 19.7304ZM77.0592 20.3625C77.0827 20.2815 77.1003 20.1989 77.112 20.1153V20.08C77.1298 19.9631 77.1392 19.8451 77.1402 19.7269C77.1389 19.6085 77.1283 19.4904 77.1085 19.3737C77.1085 19.3526 77.1085 19.3314 77.1085 19.3314C77.0918 19.2257 77.0659 19.1217 77.031 19.0206C76.9224 18.6321 76.693 18.2883 76.3761 18.0394C76.0591 17.7904 75.6712 17.6493 75.2687 17.6364C74.2359 17.6364 73.4041 18.5934 73.4112 19.7551C73.4182 20.9169 74.2641 21.8491 75.2933 21.8421C75.705 21.8192 76.0985 21.6644 76.4158 21.4006C76.733 21.1367 76.9574 20.7778 77.0557 20.3766L77.0592 20.3625ZM83.1251 19.6068L86.1951 18.3002C86.0671 18.0778 85.881 17.8945 85.6568 17.77C85.4326 17.6456 85.1788 17.5847 84.9227 17.594C83.756 17.594 82.9559 18.9253 83.1251 19.6209V19.6068ZM95.8385 16.7818C95.837 16.5818 95.7947 16.3842 95.7143 16.2012C95.6339 16.0181 95.517 15.8534 95.3708 15.7172C95.2246 15.581 95.0522 15.4761 94.8641 15.409C94.6761 15.3419 94.4763 15.314 94.2771 15.327H92.5958V18.2367H94.3581C94.5508 18.2395 94.7421 18.2042 94.9211 18.1326C95.1001 18.0611 95.2633 17.9549 95.4012 17.82C95.539 17.6852 95.649 17.5243 95.7246 17.3467C95.8003 17.1692 95.8402 16.9784 95.842 16.7853L95.8385 16.7818Z" fill="white"/>
<g clip-path="url(#clip0_588_32607)">
<path d="M19.4922 11.2559C18.8662 10.9099 18.1312 10.9179 17.5093 11.2609L24.7989 17.9855L27.2477 15.5366L19.4922 11.2559Z" fill="white"/>
<path d="M16.7805 11.9482C16.6025 12.2392 16.5005 12.5722 16.5005 12.9252V25.0705C16.5005 25.4125 16.5935 25.7385 16.7615 26.0234L24.0921 18.6929L16.7805 11.9482Z" fill="white"/>
<path d="M30.4944 17.328L28.1585 16.0391L25.5337 18.6629L28.7505 21.6298L30.4954 20.6668C31.1234 20.3188 31.4994 19.6949 31.4994 18.9969C31.4984 18.2989 31.1234 17.675 30.4944 17.328Z" fill="white"/>
<path d="M24.8271 19.3711L17.4766 26.7217C17.7955 26.9037 18.1455 26.9997 18.4975 26.9997C18.8375 26.9997 19.1795 26.9137 19.4924 26.7407L27.829 22.1399L24.8271 19.3711Z" fill="white"/>
</g>
<defs>
<clipPath id="clip0_588_32607">
<rect width="16" height="16" fill="white" transform="translate(16 11)"/>
</clipPath>
</defs>
</svg>
