<svg width="14" height="14" viewBox="0 0 14 14" fill="none" xmlns="http://www.w3.org/2000/svg">
<path d="M13.75 12.25V11.0155C13.75 10.4022 13.3766 9.85063 12.8071 9.62283L11.2815 9.01259C10.5571 8.72286 9.73164 9.03671 9.38276 9.73449L9.25 10C9.25 10 7.375 9.625 5.875 8.125C4.375 6.625 4 4.75 4 4.75L4.26551 4.61724C4.96328 4.26836 5.27714 3.44285 4.98741 2.71852L4.37717 1.19291C4.14937 0.623427 3.59781 0.25 2.98445 0.25H1.75C0.921573 0.25 0.25 0.921573 0.25 1.75C0.25 8.37742 5.62258 13.75 12.25 13.75C13.0784 13.75 13.75 13.0784 13.75 12.25Z" fill="#9A9C99"/>
</svg>
