<svg width="20" height="19" viewBox="0 0 20 19" fill="none" xmlns="http://www.w3.org/2000/svg">
<path d="M12.998 0.998047L6.99805 1.00391L5.16406 3H2C0.9 3 0 3.9 0 5V17C0 18.1 0.9 19 2 19H18C19.1 19 20 18.1 20 17V5C20 3.9 19.1 3 18 3H14.8438L12.998 0.998047ZM12.1211 2.99805L13.9668 5H18V17H2V5H6.04297L7.87891 3.00195L12.1211 2.99805ZM10 6C7.239 6 5 8.239 5 11C5 13.761 7.239 16 10 16C12.761 16 15 13.761 15 11C15 8.239 12.761 6 10 6ZM10 8C11.657 8 13 9.343 13 11C13 12.657 11.657 14 10 14C8.343 14 7 12.657 7 11C7 9.343 8.343 8 10 8Z" fill="#005BFF"/>
</svg>
