<svg width="18" height="18" viewBox="0 0 18 18" fill="none" xmlns="http://www.w3.org/2000/svg">
<g clip-path="url(#clip0_596_4969)">
<path d="M4.5 3H13.5C15.1569 3 16.5 4.34315 16.5 6V9.75C16.5 11.4069 15.1569 12.75 13.5 12.75H7.5C5.84315 12.75 4.5 11.4069 4.5 9.75V3ZM4.5 3C4.5 2.17157 3.82843 1.5 3 1.5H1.5" stroke="white" stroke-width="1.125" stroke-linecap="round" stroke-linejoin="round"/>
<path d="M8.25 15.375C8.25 15.9963 7.74632 16.5 7.125 16.5C6.50368 16.5 6 15.9963 6 15.375C6 14.7537 6.50368 14.25 7.125 14.25C7.74632 14.25 8.25 14.7537 8.25 15.375Z" stroke="white" stroke-width="1.125"/>
<path d="M15 15.375C15 15.9963 14.4963 16.5 13.875 16.5C13.2537 16.5 12.75 15.9963 12.75 15.375C12.75 14.7537 13.2537 14.25 13.875 14.25C14.4963 14.25 15 14.7537 15 15.375Z" stroke="white" stroke-width="1.125"/>
<path d="M10.5 6L10.5 9.75" stroke="white" stroke-width="1.125" stroke-linecap="round" stroke-linejoin="round"/>
<path d="M12.375 7.875L8.625 7.875" stroke="white" stroke-width="1.125" stroke-linecap="round" stroke-linejoin="round"/>
</g>
<defs>
<clipPath id="clip0_596_4969">
<rect width="18" height="18" fill="white"/>
</clipPath>
</defs>
</svg>
