<svg width="21" height="20" viewBox="0 0 21 20" fill="none" xmlns="http://www.w3.org/2000/svg">
<path d="M6.41989 11.4697C7.82989 11.4697 8.95989 12.6107 8.95989 14.0307V17.4397C8.95989 18.8497 7.82989 19.9997 6.41989 19.9997H3.03989C1.63989 19.9997 0.499893 18.8497 0.499893 17.4397V14.0307C0.499893 12.6107 1.63989 11.4697 3.03989 11.4697H6.41989ZM17.96 11.4697C19.36 11.4697 20.5 12.6107 20.5 14.0307V17.4397C20.5 18.8497 19.36 19.9997 17.96 19.9997H14.58C13.17 19.9997 12.04 18.8497 12.04 17.4397V14.0307C12.04 12.6107 13.17 11.4697 14.58 11.4697H17.96ZM6.41989 0C7.82989 0 8.95989 1.15 8.95989 2.561V5.97C8.95989 7.39 7.82989 8.53 6.41989 8.53H3.03989C1.63989 8.53 0.499893 7.39 0.499893 5.97V2.561C0.499893 1.15 1.63989 0 3.03989 0H6.41989ZM17.96 0C19.36 0 20.5 1.15 20.5 2.561V5.97C20.5 7.39 19.36 8.53 17.96 8.53H14.58C13.17 8.53 12.04 7.39 12.04 5.97V2.561C12.04 1.15 13.17 0 14.58 0H17.96Z" fill="#C7CAD4"/>
</svg>
