<svg width="28" height="28" viewBox="0 0 28 28" fill="none" xmlns="http://www.w3.org/2000/svg">
<g clip-path="url(#clip0_426_3344)">
<path d="M24.1345 27.5005H11.1727L0.0625 7.13184H13.0244L24.1345 27.5005Z" fill="#4398D1"/>
<path d="M21.3569 9.44578C23.1466 9.44578 24.5974 7.99497 24.5974 6.20531C24.5974 4.41565 23.1466 2.96484 21.3569 2.96484C19.5673 2.96484 18.1165 4.41565 18.1165 6.20531C18.1165 7.99497 19.5673 9.44578 21.3569 9.44578Z" fill="#FDB62F"/>
<path d="M20.8938 0.1875H21.8196V1.57627H20.8938V0.1875Z" fill="#FDB62F"/>
<path d="M20.8938 10.835H21.8196V12.2237H20.8938V10.835Z" fill="#FDB62F"/>
<path d="M15.3389 5.74219H16.7276V6.66803H15.3389V5.74219Z" fill="#FDB62F"/>
<path d="M25.9861 5.74219H27.3749V6.66803H25.9861V5.74219Z" fill="#FDB62F"/>
<path d="M16.7739 2.27774L17.4286 1.62305L18.4107 2.60508L17.756 3.25977L16.7739 2.27774Z" fill="#FDB62F"/>
<path d="M24.3032 9.80508L24.9579 9.15039L25.9399 10.1324L25.2853 10.7871L24.3032 9.80508Z" fill="#FDB62F"/>
<path d="M16.7742 10.1334L17.7562 9.15137L18.4109 9.80606L17.4289 10.7881L16.7742 10.1334Z" fill="#FDB62F"/>
<path d="M24.3027 2.60508L25.2848 1.62305L25.9395 2.27774L24.9574 3.25977L24.3027 2.60508Z" fill="#FDB62F"/>
<path d="M19.4333 8.80923C20.8699 9.87314 22.8969 9.57108 23.9608 8.13452C24.7957 7.00712 24.8094 5.47016 23.9945 4.32812C22.9054 6.20528 21.3295 7.75347 19.4333 8.80923Z" fill="#F7A72E"/>
<path d="M0.0625 7.13184V10.3723L9.32097 27.5005H11.1727L0.0625 7.13184Z" fill="#DEDEDE"/>
<path d="M8.66748 22.9063L11.1728 27.4994H24.1347L17.0547 14.5195L8.66748 22.9063Z" fill="#3E8CC7"/>
<path d="M17.4924 21.9454L15.2153 17.7791H18.8316L18.3271 16.8532H14.7093L12.4322 12.6869H16.0541L15.5495 11.7611H11.9262L9.39633 7.13184H8.34086L10.8707 11.7611H7.75989L5.23002 7.13184H4.17455L6.70443 11.7611H2.58765L3.09223 12.6869H7.21226L9.48938 16.8532H5.36936L5.87394 17.7791H9.99767L12.2748 21.9454H8.14273L8.64732 22.8712H12.7766L15.3065 27.5005H16.3619L13.8321 22.8712H16.9429L19.4728 27.5005H20.5283L17.9984 22.8712H21.6092L21.1046 21.9454H17.4924ZM8.26587 12.6869H11.3767L13.6538 16.8532H10.543L8.26587 12.6869ZM13.3261 21.9454L11.049 17.7791H14.1598L16.4369 21.9454H13.3261Z" fill="#3570AB"/>
</g>
<defs>
<clipPath id="clip0_426_3344">
<rect width="27.3125" height="27.3125" fill="white" transform="translate(0.0625 0.1875)"/>
</clipPath>
</defs>
</svg>
