<svg width="36" height="36" viewBox="0 0 36 36" fill="none" xmlns="http://www.w3.org/2000/svg">
<g clip-path="url(#clip0_426_3420)">
<path d="M16.3969 30.8561L16.3938 29.8833C16.4079 27.2527 16.4892 23.2644 17.4237 17.835C17.63 17.928 17.8519 17.9475 18.0004 17.9475C18.1489 17.9475 18.3708 17.928 18.5755 17.8358L18.5771 17.835C19.6648 23.0416 19.6304 27.1952 19.607 29.8731L19.6039 30.8561H16.3969Z" fill="#B8CED9"/>
<path d="M19.6037 30.8561L19.6068 29.8731C19.6302 27.1952 19.6647 23.0416 18.5769 17.835L18.5754 17.8358C18.3706 17.928 18.1487 17.9475 18.0002 17.9475V30.8561H19.6037Z" fill="#A3BFCC"/>
<path d="M21.6527 21.234C20.0945 20.3314 18.752 19.282 17.9659 18.3513L17.2361 17.4871L18.2941 17.0862C18.5926 16.9737 18.8005 16.6689 18.8005 16.3462L18.2785 15.0146L19.7101 15.3186C20.8837 15.528 22.4216 16.1453 24.0422 17.0573C25.8099 18.0778 29.403 20.574 28.3932 22.3443C27.3907 24.1112 23.4082 22.2375 21.6527 21.234Z" fill="#CEE2E6"/>
<path d="M7.60591 22.3393C6.57753 20.6015 10.199 18.0734 11.9506 17.0616C13.579 16.1457 15.1168 15.5284 16.2905 15.319L17.6986 15.0674L17.1766 16.3989C17.2001 16.6693 17.4079 16.974 17.7065 17.0866L18.7645 17.4875L18.0346 18.3517C17.2486 19.2824 15.9061 20.3318 14.3526 21.232C12.594 22.2369 8.59865 24.1174 7.60591 22.3393Z" fill="#EBF2F2"/>
<path d="M19.3772 16.4362L18.5004 15.7157C18.2317 15.4938 17.7691 15.4938 17.5002 15.7157L16.6235 16.4362L16.239 15.3688C15.8327 14.2404 15.5999 12.5549 15.5999 10.7451C15.5999 10.0903 15.6671 4.34375 18.0004 4.34375C20.3337 4.34375 20.4009 10.0903 20.4009 10.7451C20.4009 12.5549 20.168 14.2404 19.7617 15.3688L19.3772 16.4362Z" fill="#EBF2F2"/>
<path d="M18.5001 15.7157L19.3769 16.4362L19.7613 15.3688C20.1677 14.2404 20.4005 12.5549 20.4005 10.7451C20.4005 10.0903 20.3333 4.34375 18 4.34375V15.5493C18.1829 15.5493 18.3658 15.6048 18.5001 15.7157Z" fill="#CEE2E6"/>
<path d="M10.7988 30.0557H25.2019V31.656H10.7988V30.0557Z" fill="#97DE3D"/>
<path d="M18.0002 30.0557H25.2018V31.656H18.0002V30.0557Z" fill="#59C36A"/>
<path d="M25.1519 15.4976C24.9237 13.5495 23.8876 11.7554 22.3091 10.5754L23.2686 9.29395C25.1956 10.7356 26.4615 12.9291 26.7428 15.3117L25.1519 15.4976Z" fill="#59ABFF"/>
<path d="M10.8488 15.4976L9.25781 15.3117C9.5391 12.9291 10.805 10.7357 12.732 9.29395L13.6916 10.5754C12.1131 11.7554 11.0769 13.5495 10.8488 15.4976Z" fill="#66CCFF"/>
<path d="M29.8919 17.9769L28.3071 17.7581C28.9543 13.0937 26.3833 8.53011 21.9292 6.71201L22.5356 5.23047C27.7222 7.34836 30.6291 12.6439 29.8919 17.9769Z" fill="#59ABFF"/>
<path d="M6.10714 17.9738C5.37178 12.6308 8.28867 7.34415 13.465 5.23047L14.0713 6.71201C9.64768 8.51768 7.05326 13.0421 7.69185 17.7597L6.10714 17.9738Z" fill="#66CCFF"/>
<path d="M18.0002 17.9469C17.1136 17.9469 16.3999 17.2191 16.3999 16.3466C16.3999 15.5185 17.023 14.7627 18.0018 14.7627C18.9737 14.7627 19.6006 15.5322 19.6006 16.3466C19.6006 17.2194 18.8867 17.9469 18.0002 17.9469Z" fill="#465D8C"/>
<path d="M19.6006 16.3466C19.6006 15.5322 18.9737 14.7627 18.0018 14.7627C18.0012 14.7627 18.0008 14.763 18.0002 14.763V17.9469C18.8867 17.9469 19.6006 17.2193 19.6006 16.3466Z" fill="#333B66"/>
</g>
<defs>
<clipPath id="clip0_426_3420">
<rect width="27.3125" height="27.3125" fill="white" transform="translate(4.34375 4.34375)"/>
</clipPath>
</defs>
</svg>
