<svg width="36" height="36" viewBox="0 0 36 36" fill="none" xmlns="http://www.w3.org/2000/svg">
<path d="M29.3203 16.3828H31.4766V33.6328H29.3203V16.3828Z" fill="#CCCCCC"/>
<path d="M30.3984 23.3906C30.399 23.0572 30.503 22.7321 30.6961 22.4602C30.8892 22.1883 31.1619 21.983 31.4766 21.8726V16.3828H29.3203V33.6328H30.3984V23.3906Z" fill="#93999A"/>
<path d="M30.3984 19.6172H11.5312L4.52344 33.6328H23.3906L30.3984 19.6172Z" fill="#AAE1F9"/>
<path d="M10.9922 13.1484H30.3984V19.6172H10.9922C10.1344 19.6172 9.3117 19.2764 8.70514 18.6699C8.09858 18.0633 7.75781 17.2406 7.75781 16.3828C7.75781 15.525 8.09858 14.7023 8.70514 14.0958C9.3117 13.4892 10.1344 13.1484 10.9922 13.1484Z" fill="#CCCCCC"/>
<path d="M7.21875 9.91406C8.70733 9.91406 9.91406 8.70733 9.91406 7.21875C9.91406 5.73017 8.70733 4.52344 7.21875 4.52344C5.73017 4.52344 4.52344 5.73017 4.52344 7.21875C4.52344 8.70733 5.73017 9.91406 7.21875 9.91406Z" fill="#F9E109"/>
<path d="M8.29688 8.83594C7.58204 8.83594 6.89647 8.55197 6.391 8.0465C5.88553 7.54103 5.60156 6.85547 5.60156 6.14062C5.60454 5.69234 5.72041 5.25203 5.93848 4.86035C5.56948 5.05877 5.25199 5.34073 5.01138 5.68372C4.77078 6.02671 4.61372 6.42122 4.55276 6.83573C4.4918 7.25023 4.52863 7.67325 4.6603 8.07099C4.79197 8.46873 5.01483 8.83017 5.31108 9.12642C5.60734 9.42267 5.96877 9.64554 6.36651 9.77721C6.76425 9.90887 7.18727 9.9457 7.60177 9.88474C8.01628 9.82378 8.41079 9.66672 8.75378 9.42612C9.09677 9.18551 9.37873 8.86803 9.57715 8.49902C9.18547 8.71709 8.74516 8.83296 8.29688 8.83594Z" fill="#FCBC04"/>
<path d="M30.3984 19.6172L4.52344 33.6328H23.3906L30.3984 19.6172Z" fill="#57B7EB"/>
<path d="M27.0228 13.1484C26.784 14.0734 26.2448 14.8929 25.4898 15.4783C24.7349 16.0637 23.8069 16.3819 22.8516 16.3828H7.75781C7.75781 17.2406 8.09858 18.0633 8.70514 18.6699C9.3117 19.2764 10.1344 19.6172 10.9922 19.6172H30.3984V13.1484H27.0228Z" fill="#93999A"/>
<path d="M30.3984 19.6172C32.1847 19.6172 33.6328 18.1691 33.6328 16.3828C33.6328 14.5965 32.1847 13.1484 30.3984 13.1484C28.6121 13.1484 27.1641 14.5965 27.1641 16.3828C27.1641 18.1691 28.6121 19.6172 30.3984 19.6172Z" fill="#656B76"/>
<path d="M15.3696 19.6172L8.3618 33.6328H7.1543L14.1621 19.6172H15.3696Z" fill="#57B7EB"/>
<path d="M18.0649 19.6172L11.0571 33.6328H9.84961L16.8574 19.6172H18.0649Z" fill="#57B7EB"/>
<path d="M20.7602 19.6172L13.7524 33.6328H12.5449L19.5527 19.6172H20.7602Z" fill="#57B7EB"/>
<path d="M23.4555 19.6172L16.4477 33.6328H15.2402L22.248 19.6172H23.4555Z" fill="#57B7EB"/>
<path d="M26.1509 19.6172L19.143 33.6328H17.9355L24.9434 19.6172H26.1509Z" fill="#57B7EB"/>
<path d="M28.8462 19.6172L21.8384 33.6328H20.6309L27.6387 19.6172H28.8462Z" fill="#57B7EB"/>
<path d="M28.8462 19.6172L21.8384 33.6328H20.6309L27.6387 19.6172H28.8462Z" fill="#57B7EB"/>
<path d="M26.1509 19.6172L19.143 33.6328H17.9355L24.9434 19.6172H26.1509Z" fill="#57B7EB"/>
<path d="M23.4555 19.6172L16.4477 33.6328H15.2402L22.248 19.6172H23.4555Z" fill="#57B7EB"/>
<path d="M20.7602 19.6172L13.7524 33.6328H12.5449L19.5527 19.6172H20.7602Z" fill="#57B7EB"/>
<path d="M18.0649 19.6172L11.0571 33.6328H9.84961L16.8574 19.6172H18.0649Z" fill="#57B7EB"/>
<path d="M15.3696 19.6172L8.3618 33.6328H7.1543L14.1621 19.6172H15.3696Z" fill="#57B7EB"/>
<path d="M12.6741 19.6172L5.66624 33.6328H4.45874L11.4666 19.6172H12.6741Z" fill="#57B7EB"/>
<path d="M7.21875 3.44531C7.51647 3.44531 7.75781 3.20397 7.75781 2.90625C7.75781 2.60853 7.51647 2.36719 7.21875 2.36719C6.92103 2.36719 6.67969 2.60853 6.67969 2.90625C6.67969 3.20397 6.92103 3.44531 7.21875 3.44531Z" fill="#F9E109"/>
<path d="M7.21875 12.0703C7.51647 12.0703 7.75781 11.829 7.75781 11.5312C7.75781 11.2335 7.51647 10.9922 7.21875 10.9922C6.92103 10.9922 6.67969 11.2335 6.67969 11.5312C6.67969 11.829 6.92103 12.0703 7.21875 12.0703Z" fill="#F9E109"/>
<path d="M2.90625 7.75781C3.20397 7.75781 3.44531 7.51647 3.44531 7.21875C3.44531 6.92103 3.20397 6.67969 2.90625 6.67969C2.60853 6.67969 2.36719 6.92103 2.36719 7.21875C2.36719 7.51647 2.60853 7.75781 2.90625 7.75781Z" fill="#F9E109"/>
<path d="M11.5312 7.75781C11.829 7.75781 12.0703 7.51647 12.0703 7.21875C12.0703 6.92103 11.829 6.67969 11.5312 6.67969C11.2335 6.67969 10.9922 6.92103 10.9922 7.21875C10.9922 7.51647 11.2335 7.75781 11.5312 7.75781Z" fill="#F9E109"/>
<path d="M29.9517 11.254C29.8451 11.254 29.7409 11.2224 29.6523 11.1631C29.5637 11.1039 29.4946 11.0197 29.4538 10.9212C29.413 10.8227 29.4024 10.7144 29.4231 10.6098C29.4439 10.5053 29.4953 10.4092 29.5706 10.3338C29.8738 10.0306 30.0441 9.6193 30.0441 9.19048C30.0441 8.76166 29.8738 8.3504 29.5706 8.04713C29.0661 7.54108 28.7827 6.85562 28.7827 6.14101C28.7827 5.42639 29.0661 4.74093 29.5706 4.23488C29.6204 4.1834 29.6798 4.14233 29.7456 4.11408C29.8114 4.08583 29.8821 4.07095 29.9537 4.07033C30.0253 4.06971 30.0962 4.08335 30.1625 4.11045C30.2287 4.13756 30.2889 4.17759 30.3395 4.2282C30.3902 4.27881 30.4302 4.339 30.4573 4.40525C30.4844 4.4715 30.498 4.54248 30.4974 4.61406C30.4968 4.68564 30.4819 4.75637 30.4537 4.82214C30.4254 4.88791 30.3843 4.94739 30.3329 4.99712C30.0301 5.30085 29.8602 5.71218 29.8602 6.14101C29.8602 6.56983 30.0301 6.98117 30.3329 7.2849C30.8381 7.79034 31.122 8.47578 31.122 9.19048C31.122 9.90518 30.8381 10.5906 30.3329 11.0961C30.2829 11.1463 30.2235 11.1861 30.1581 11.2132C30.0927 11.2403 30.0226 11.2542 29.9517 11.254Z" fill="#FCBC04"/>
<path d="M27.2564 11.254C27.1498 11.254 27.0456 11.2224 26.957 11.1631C26.8684 11.1039 26.7993 11.0197 26.7585 10.9212C26.7177 10.8227 26.707 10.7144 26.7278 10.6098C26.7486 10.5053 26.7999 10.4092 26.8753 10.3338C27.1785 10.0306 27.3488 9.6193 27.3488 9.19048C27.3488 8.76166 27.1785 8.3504 26.8753 8.04713C26.3707 7.54108 26.0874 6.85562 26.0874 6.14101C26.0874 5.42639 26.3707 4.74093 26.8753 4.23488C26.925 4.1834 26.9845 4.14233 27.0503 4.11408C27.1161 4.08583 27.1868 4.07095 27.2584 4.07033C27.3299 4.06971 27.4009 4.08335 27.4672 4.11045C27.5334 4.13756 27.5936 4.17759 27.6442 4.2282C27.6948 4.27881 27.7349 4.339 27.762 4.40525C27.7891 4.4715 27.8027 4.54248 27.8021 4.61406C27.8015 4.68564 27.7866 4.75637 27.7583 4.82214C27.7301 4.88791 27.689 4.94739 27.6375 4.99712C27.3348 5.30085 27.1649 5.71218 27.1649 6.14101C27.1649 6.56983 27.3348 6.98117 27.6375 7.2849C28.1428 7.79034 28.4267 8.47578 28.4267 9.19048C28.4267 9.90518 28.1428 10.5906 27.6375 11.0961C27.5876 11.1463 27.5282 11.1861 27.4628 11.2132C27.3974 11.2403 27.3272 11.2542 27.2564 11.254Z" fill="#FCBC04"/>
<path d="M24.5611 11.254C24.4545 11.254 24.3503 11.2224 24.2617 11.1631C24.1731 11.1039 24.104 11.0197 24.0632 10.9212C24.0224 10.8227 24.0117 10.7144 24.0325 10.6098C24.0533 10.5053 24.1046 10.4092 24.18 10.3338C24.4832 10.0306 24.6535 9.6193 24.6535 9.19048C24.6535 8.76166 24.4832 8.3504 24.18 8.04713C23.6754 7.54108 23.3921 6.85562 23.3921 6.14101C23.3921 5.42639 23.6754 4.74093 24.18 4.23488C24.2297 4.1834 24.2892 4.14233 24.355 4.11408C24.4207 4.08583 24.4915 4.07095 24.5631 4.07033C24.6346 4.06971 24.7056 4.08335 24.7719 4.11045C24.8381 4.13756 24.8983 4.17759 24.9489 4.2282C24.9995 4.27881 25.0396 4.339 25.0667 4.40525C25.0938 4.4715 25.1074 4.54248 25.1068 4.61406C25.1062 4.68564 25.0913 4.75637 25.063 4.82214C25.0348 4.88791 24.9937 4.94739 24.9422 4.99712C24.6395 5.30085 24.4695 5.71218 24.4695 6.14101C24.4695 6.56983 24.6395 6.98117 24.9422 7.2849C25.4475 7.79034 25.7314 8.47578 25.7314 9.19048C25.7314 9.90518 25.4475 10.5906 24.9422 11.0961C24.8923 11.1463 24.8329 11.1861 24.7675 11.2132C24.7021 11.2403 24.6319 11.2542 24.5611 11.254Z" fill="#FCBC04"/>
<path d="M21.8658 11.254C21.7592 11.254 21.655 11.2224 21.5664 11.1631C21.4777 11.1039 21.4087 11.0197 21.3679 10.9212C21.3271 10.8227 21.3164 10.7144 21.3372 10.6098C21.358 10.5053 21.4093 10.4092 21.4847 10.3338C21.7879 10.0306 21.9582 9.6193 21.9582 9.19048C21.9582 8.76166 21.7879 8.3504 21.4847 8.04713C20.9801 7.54108 20.6968 6.85562 20.6968 6.14101C20.6968 5.42639 20.9801 4.74093 21.4847 4.23488C21.5344 4.1834 21.5939 4.14233 21.6597 4.11408C21.7254 4.08583 21.7962 4.07095 21.8677 4.07033C21.9393 4.06971 22.0103 4.08335 22.0766 4.11045C22.1428 4.13756 22.203 4.17759 22.2536 4.2282C22.3042 4.27881 22.3442 4.339 22.3713 4.40525C22.3985 4.4715 22.4121 4.54248 22.4115 4.61406C22.4108 4.68564 22.396 4.75637 22.3677 4.82214C22.3395 4.88791 22.2984 4.94739 22.2469 4.99712C21.9442 5.30085 21.7742 5.71218 21.7742 6.14101C21.7742 6.56983 21.9442 6.98117 22.2469 7.2849C22.7522 7.79034 23.0361 8.47578 23.0361 9.19048C23.0361 9.90518 22.7522 10.5906 22.2469 11.0961C22.197 11.1463 22.1376 11.1861 22.0722 11.2132C22.0068 11.2403 21.9366 11.2542 21.8658 11.254Z" fill="#FCBC04"/>
<path d="M19.1705 11.254C19.0639 11.254 18.9597 11.2224 18.8711 11.1631C18.7824 11.1039 18.7134 11.0197 18.6726 10.9212C18.6318 10.8227 18.6211 10.7144 18.6419 10.6098C18.6627 10.5053 18.714 10.4092 18.7894 10.3338C19.0925 10.0306 19.2629 9.6193 19.2629 9.19048C19.2629 8.76166 19.0925 8.3504 18.7894 8.04713C18.2848 7.54108 18.0015 6.85562 18.0015 6.14101C18.0015 5.42639 18.2848 4.74093 18.7894 4.23488C18.8391 4.1834 18.8986 4.14233 18.9644 4.11408C19.0301 4.08583 19.1009 4.07095 19.1724 4.07033C19.244 4.06971 19.315 4.08335 19.3812 4.11045C19.4475 4.13756 19.5077 4.17759 19.5583 4.2282C19.6089 4.27881 19.6489 4.339 19.676 4.40525C19.7031 4.4715 19.7168 4.54248 19.7162 4.61406C19.7155 4.68564 19.7007 4.75637 19.6724 4.82214C19.6442 4.88791 19.6031 4.94739 19.5516 4.99712C19.2489 5.30085 19.0789 5.71218 19.0789 6.14101C19.0789 6.56983 19.2489 6.98117 19.5516 7.2849C20.0569 7.79034 20.3408 8.47578 20.3408 9.19048C20.3408 9.90518 20.0569 10.5906 19.5516 11.0961C19.5017 11.1463 19.4423 11.1861 19.3769 11.2132C19.3115 11.2403 19.2413 11.2542 19.1705 11.254Z" fill="#FCBC04"/>
<path d="M16.4749 11.254C16.3683 11.254 16.2641 11.2224 16.1755 11.1631C16.0869 11.1039 16.0178 11.0197 15.977 10.9212C15.9362 10.8227 15.9255 10.7144 15.9463 10.6098C15.9671 10.5053 16.0184 10.4092 16.0938 10.3338C16.397 10.0306 16.5673 9.6193 16.5673 9.19048C16.5673 8.76166 16.397 8.3504 16.0938 8.04713C15.5892 7.54108 15.3059 6.85562 15.3059 6.14101C15.3059 5.42639 15.5892 4.74093 16.0938 4.23488C16.1435 4.1834 16.203 4.14233 16.2688 4.11408C16.3346 4.08583 16.4053 4.07095 16.4769 4.07033C16.5484 4.06971 16.6194 4.08335 16.6857 4.11045C16.7519 4.13756 16.8121 4.17759 16.8627 4.2282C16.9133 4.27881 16.9534 4.339 16.9805 4.40525C17.0076 4.4715 17.0212 4.54248 17.0206 4.61406C17.02 4.68564 17.0051 4.75637 16.9769 4.82214C16.9486 4.88791 16.9075 4.94739 16.8561 4.99712C16.5533 5.30085 16.3834 5.71218 16.3834 6.14101C16.3834 6.56983 16.5533 6.98117 16.8561 7.2849C17.3613 7.79034 17.6452 8.47578 17.6452 9.19048C17.6452 9.90518 17.3613 10.5906 16.8561 11.0961C16.8061 11.1463 16.7467 11.1861 16.6813 11.2132C16.6159 11.2403 16.5457 11.2542 16.4749 11.254Z" fill="#FCBC04"/>
<path d="M31.4766 16.9219C31.3336 16.9219 31.1965 16.8651 31.0954 16.764C30.9943 16.6629 30.9375 16.5258 30.9375 16.3828C30.9375 16.2398 30.8807 16.1027 30.7796 16.0016C30.6785 15.9005 30.5414 15.8438 30.3984 15.8438C30.2555 15.8438 30.1184 15.787 30.0173 15.6859C29.9162 15.5848 29.8594 15.4477 29.8594 15.3047C29.8594 15.1617 29.9162 15.0246 30.0173 14.9235C30.1184 14.8224 30.2555 14.7656 30.3984 14.7656C30.8273 14.7656 31.2387 14.936 31.542 15.2393C31.8452 15.5426 32.0156 15.9539 32.0156 16.3828C32.0156 16.5258 31.9588 16.6629 31.8577 16.764C31.7566 16.8651 31.6195 16.9219 31.4766 16.9219Z" fill="#93999A"/>
<path d="M10.2683 4.70801C10.566 4.70801 10.8074 4.46666 10.8074 4.16895C10.8074 3.87123 10.566 3.62988 10.2683 3.62988C9.97059 3.62988 9.72925 3.87123 9.72925 4.16895C9.72925 4.46666 9.97059 4.70801 10.2683 4.70801Z" fill="#F9E109"/>
<path d="M4.16919 10.8076C4.46691 10.8076 4.70825 10.5663 4.70825 10.2686C4.70825 9.97084 4.46691 9.72949 4.16919 9.72949C3.87147 9.72949 3.63013 9.97084 3.63013 10.2686C3.63013 10.5663 3.87147 10.8076 4.16919 10.8076Z" fill="#F9E109"/>
<path d="M4.16919 4.70801C4.46691 4.70801 4.70825 4.46666 4.70825 4.16895C4.70825 3.87123 4.46691 3.62988 4.16919 3.62988C3.87147 3.62988 3.63013 3.87123 3.63013 4.16895C3.63013 4.46666 3.87147 4.70801 4.16919 4.70801Z" fill="#F9E109"/>
<path d="M10.2683 10.8076C10.566 10.8076 10.8074 10.5663 10.8074 10.2686C10.8074 9.97084 10.566 9.72949 10.2683 9.72949C9.97059 9.72949 9.72925 9.97084 9.72925 10.2686C9.72925 10.5663 9.97059 10.8076 10.2683 10.8076Z" fill="#F9E109"/>
<path d="M28.3071 19.6172L21.2993 33.6328H20.0918L27.0996 19.6172H28.3071Z" fill="#D0D8DA"/>
<path d="M25.6118 19.6172L18.604 33.6328H17.3965L24.4043 19.6172H25.6118Z" fill="#D0D8DA"/>
<path d="M22.9165 19.6172L15.9087 33.6328H14.7012L21.709 19.6172H22.9165Z" fill="#D0D8DA"/>
<path d="M20.2212 19.6172L13.2134 33.6328H12.0059L19.0137 19.6172H20.2212Z" fill="#D0D8DA"/>
<path d="M17.5259 19.6172L10.518 33.6328H9.31055L16.3184 19.6172H17.5259Z" fill="#D0D8DA"/>
<path d="M14.8305 19.6172L7.82273 33.6328H6.61523L13.623 19.6172H14.8305Z" fill="#D0D8DA"/>
<path d="M12.135 19.6172L5.12718 33.6328H3.91968L10.9275 19.6172H12.135Z" fill="#D0D8DA"/>
<path d="M31.0024 19.6172L23.9946 33.6328H22.7871L29.7949 19.6172H31.0024Z" fill="#D0D8DA"/>
</svg>
