<svg width="15" height="20" viewBox="0 0 15 20" fill="none" xmlns="http://www.w3.org/2000/svg">
<path d="M2.77344 7.7373H12.3599V16.4698H2.77344V7.7373Z" fill="#FEFDFE"/>
<path d="M5.37352 16.4502L4.9382 18.8443C4.89262 19.0952 4.67414 19.2775 4.41922 19.2775H3.19453C2.93961 19.2775 2.72117 19.0952 2.67555 18.8443L2.24023 16.4502H5.37352Z" fill="#FEFDFE"/>
<path d="M12.894 16.4502L12.4587 18.8443C12.4131 19.0952 12.1946 19.2775 11.9397 19.2775H10.715C10.4601 19.2775 10.2417 19.0952 10.1961 18.8443L9.76074 16.4502H12.894Z" fill="#FEFDFE"/>
<path d="M2.77373 7.90273V16.8098C2.77373 17.4427 2.26068 17.9557 1.62783 17.9557C0.99498 17.9557 0.481934 17.4427 0.481934 16.8098V7.90273C0.481934 7.26988 0.99498 6.75684 1.62783 6.75684C2.26068 6.75684 2.77373 7.26984 2.77373 7.90273Z" fill="#B8DAFF"/>
<path d="M6.7332 7.90273V16.8098C6.7332 17.4427 6.22016 17.9557 5.5873 17.9557C4.95445 17.9557 4.44141 17.4427 4.44141 16.8098V7.90273C4.44141 7.26988 4.95445 6.75684 5.5873 6.75684C6.22016 6.75684 6.7332 7.26984 6.7332 7.90273Z" fill="#B8DAFF"/>
<path d="M10.6927 7.90273V16.8098C10.6927 17.4427 10.1796 17.9557 9.54678 17.9557C8.91393 17.9557 8.40088 17.4427 8.40088 16.8098V7.90273C8.40088 7.26988 8.91393 6.75684 9.54678 6.75684C10.1796 6.75684 10.6927 7.26984 10.6927 7.90273Z" fill="#B8DAFF"/>
<path d="M14.4495 7.90273V16.8098C14.4495 17.4427 13.9365 17.9557 13.3036 17.9557C12.6708 17.9557 12.1577 17.4427 12.1577 16.8098V7.90273C12.1577 7.26988 12.6708 6.75684 13.3036 6.75684C13.9365 6.75684 14.4495 7.26984 14.4495 7.90273Z" fill="#B8DAFF"/>
<path d="M4.75918 18.6206C4.62203 18.5891 4.48742 18.6747 4.45617 18.8109C4.4273 18.937 4.3184 19.025 4.19094 19.025H2.96434C2.8325 19.025 2.71926 18.9299 2.69535 18.8002L2.67105 18.6647C2.64637 18.5275 2.5159 18.4348 2.37734 18.4603C2.23977 18.485 2.14828 18.6164 2.17297 18.754L2.19746 18.8909C2.26625 19.2617 2.58859 19.5309 2.96434 19.5309H4.19094C4.55578 19.5309 4.86769 19.2811 4.94949 18.9236C4.98055 18.7874 4.89535 18.6518 4.75918 18.6206Z" fill="#3F8CF4"/>
<path d="M12.2995 18.4621C12.1636 18.4374 12.0304 18.5283 12.0054 18.6656L11.9813 18.7983C11.9569 18.9295 11.8428 19.0246 11.7098 19.0246H10.4854C10.3577 19.0246 10.2454 18.9354 10.2183 18.8125C10.1883 18.6761 10.0529 18.5905 9.91693 18.6198C9.78037 18.6498 9.6942 18.7848 9.72424 18.9212C9.80189 19.2744 10.1221 19.5305 10.4854 19.5305H11.7098C12.0865 19.5305 12.4099 19.2615 12.4788 18.8897L12.5031 18.7562C12.5282 18.6188 12.4371 18.4869 12.2995 18.4621Z" fill="#3F8CF4"/>
<path d="M10.3754 0.485645C10.5041 0.430879 10.5639 0.282246 10.5092 0.153809C10.4544 0.0253322 10.3058 -0.03416 10.1773 0.0200197C9.55594 0.284668 9.13317 0.891035 9.14938 1.49447C9.16442 2.04709 9.4907 2.46748 9.80617 2.87424C10.0756 3.22123 10.3698 3.59404 10.3833 4.03561C10.3898 4.25834 10.312 4.46768 10.175 4.59553C10.0728 4.691 10.0673 4.85107 10.1625 4.95307C10.2583 5.05564 10.4185 5.06045 10.5201 4.96553C10.7654 4.73646 10.8998 4.39217 10.8889 4.02076C10.8715 3.43311 10.5339 2.98646 10.2058 2.56389C9.92813 2.20596 9.66567 1.86775 9.65535 1.48096C9.64449 1.07998 9.94055 0.67084 10.3754 0.485645Z" fill="#3F8CF4"/>
<path d="M7.69424 0.485645C7.82291 0.430879 7.88279 0.282246 7.82803 0.153809C7.77307 0.0253322 7.62463 -0.03416 7.49619 0.0200197C6.87479 0.284668 6.45201 0.891035 6.46822 1.49447C6.48326 2.04709 6.80955 2.46748 7.12502 2.87424C7.39447 3.22123 7.68862 3.59404 7.70217 4.03561C7.70869 4.25834 7.6308 4.46768 7.49385 4.59553C7.39166 4.691 7.38612 4.85107 7.48139 4.95307C7.57713 5.05564 7.73736 5.06045 7.83893 4.96553C8.0842 4.73646 8.21862 4.39217 8.20776 4.02076C8.19037 3.43311 7.85276 2.98646 7.52467 2.56389C7.24697 2.20596 6.98451 1.86775 6.9742 1.48096C6.96334 1.07998 7.2594 0.67084 7.69424 0.485645Z" fill="#3F8CF4"/>
<path d="M5.01358 0.485639C5.14225 0.430874 5.20213 0.282241 5.14736 0.153803C5.0926 0.0253657 4.9442 -0.0341655 4.81553 0.0200142C4.19412 0.284663 3.77135 0.89103 3.78756 1.49447C3.8026 2.04708 4.12889 2.46748 4.44436 2.87423C4.71381 3.22123 5.00795 3.59404 5.02151 4.0356C5.02803 4.25834 4.95014 4.46767 4.81319 4.59552C4.711 4.69099 4.70545 4.85107 4.80072 4.95306C4.89647 5.05564 5.0567 5.06044 5.15826 4.96552C5.40354 4.73646 5.53795 4.39216 5.52709 4.02076C5.50971 3.4331 5.17209 2.98646 4.84401 2.56388C4.56631 2.20595 4.30385 1.86775 4.29354 1.48095C4.28268 1.07998 4.57873 0.670835 5.01358 0.485639Z" fill="#3F8CF4"/>
<path d="M13.2772 6.50391C12.659 6.50391 12.134 6.90754 11.9496 7.46488L10.6477 7.47121C10.4653 6.91055 9.93848 6.50391 9.31789 6.50391C8.6934 6.50391 8.16348 6.91531 7.98418 7.48121L6.69414 7.48723C6.51676 6.91813 5.985 6.50391 5.3584 6.50391C4.72805 6.50391 4.19418 6.92312 4.01988 7.49727L2.73902 7.50336C2.56664 6.92613 2.03148 6.50391 1.39894 6.50391C0.627539 6.50391 0 7.13145 0 7.90285V16.8098C0 17.5812 0.627539 18.2088 1.39894 18.2088C2.17035 18.2088 2.79789 17.5812 2.79789 16.8098V16.7226L3.95945 16.7183V16.8098C3.95945 17.5812 4.58699 18.2088 5.3584 18.2088C6.12961 18.2088 6.75715 17.5812 6.75715 16.8098V16.7061L7.91891 16.7004V16.8098C7.91891 17.5812 8.54644 18.2088 9.31785 18.2088C10.0891 18.2088 10.7166 17.5812 10.7166 16.8098V16.6898L11.8784 16.6843V16.8098C11.8784 17.5812 12.5059 18.2088 13.2771 18.2088C14.0485 18.2088 14.6761 17.5812 14.6761 16.8098V7.90289C14.6761 7.13145 14.0486 6.50391 13.2772 6.50391ZM1.39891 17.7029C0.906562 17.7029 0.505937 17.3022 0.505937 16.8099V7.90289C0.505937 7.41055 0.906562 7.00992 1.39891 7.00992C1.83609 7.00992 2.19934 7.32629 2.27559 7.7418C2.27523 7.74758 2.27227 7.75254 2.2723 7.7584L2.29187 12.4464V16.8099C2.29187 17.3022 1.89125 17.7029 1.39891 17.7029ZM2.81367 16.2166L2.79785 12.4431V8.00914L3.95941 8.00359V16.2123C3.9082 16.2113 3.10012 16.2152 2.81367 16.2166ZM6.25117 16.8099C6.25117 17.3022 5.85074 17.7029 5.3584 17.7029C4.86605 17.7029 4.46543 17.3022 4.46543 16.8099C4.46543 15.2077 4.46543 10.0029 4.46543 7.90289C4.46543 7.41055 4.86605 7.00992 5.3584 7.00992C5.85074 7.00992 6.25117 7.41055 6.25117 7.90289V16.8099ZM6.75715 16.2001V7.99297L7.91891 7.98754V16.1945L6.75715 16.2001ZM9.31789 17.7029C8.82555 17.7029 8.42492 17.3022 8.42492 16.8099C8.42492 15.1683 8.42492 8.9177 8.42492 7.90289C8.42492 7.41055 8.82555 7.00992 9.31789 7.00992C9.81023 7.00992 10.2107 7.41055 10.2107 7.90289V16.8099C10.2107 17.3022 9.81023 17.7029 9.31789 17.7029ZM10.7166 16.1839V7.97687L11.8606 7.97125L11.8784 12.2162V16.1782L10.7166 16.1839ZM14.1702 16.8099C14.1702 17.3022 13.7695 17.7029 13.2772 17.7029C12.7848 17.7029 12.3844 17.3022 12.3844 16.8099C12.3844 10.5125 12.3844 12.6845 12.3844 12.2146V7.90289C12.3844 7.41055 12.7848 7.00992 13.2772 7.00992C13.7695 7.00992 14.1702 7.41055 14.1702 7.90289V16.8099Z" fill="#3F8CF4"/>
</svg>
