<svg width="20" height="20" viewBox="0 0 20 20" fill="none" xmlns="http://www.w3.org/2000/svg">
<path d="M8.79254 0.0161546C8.30535 -0.097947 7.90801 0.414475 8.13961 0.857873C8.8209 2.16233 9.2918 3.2901 8.62414 4.52365L7.1632 2.69959C6.94094 2.42213 6.52684 2.40658 6.28344 2.65983C5.24977 3.73514 3.51562 5.93057 3.51562 8.55233C3.51562 12.4392 6.27375 15.1764 9.86141 15.2424C9.91918 15.2586 9.97789 15.2654 10.0351 15.2639C13.6413 15.1714 16.4062 12.4478 16.4062 8.55233C16.4062 5.43666 14.4123 1.33155 8.79254 0.0161546Z" fill="#FFDD4D"/>
<path d="M16.4062 8.55203C16.4062 12.3277 13.809 15.0022 10.3656 15.2475C10.291 15.2528 10.0368 15.269 9.96094 15.2607V0.345703C14.6914 1.92262 16.4062 5.66309 16.4062 8.55203Z" fill="#FDB334"/>
<path d="M11.8834 8.90948C11.1398 7.9446 10.3497 7.26925 10.3164 7.241C10.0927 7.05089 9.76281 7.05569 9.54464 7.25225C9.51265 7.28108 8.75265 7.97011 8.04535 8.95034C7.04355 10.3387 6.65222 11.5926 6.88234 12.6771C7.13812 13.8826 8.13226 14.776 9.83718 15.3325C10.0466 15.4008 10.2678 15.345 10.4195 15.2033C12.0122 14.6317 12.9327 13.7585 13.1567 12.6058C13.3671 11.5226 12.9387 10.2789 11.8834 8.90948Z" fill="#FD5D1C"/>
<path d="M13.1566 12.6056C12.9328 13.7583 12.0121 14.6313 10.4195 15.2032C10.4023 15.2192 10.3848 15.2336 10.366 15.2473H10.3656C10.2473 15.334 10.1023 15.3723 9.96094 15.3582V7.10156C10.0879 7.10703 10.2133 7.15312 10.3164 7.24062C10.3496 7.26914 11.1398 7.94449 11.8832 8.9093C12.9387 10.2788 13.3668 11.5225 13.1566 12.6056Z" fill="#DF0D22"/>
<path d="M8.6939 13.0783L6.93609 10.3831C6.80519 10.1824 6.56534 10.0815 6.33038 10.1286L1.05695 11.1833C0.809641 11.2327 0.621712 11.4349 0.590462 11.6852L0.00452427 16.3725C-0.0149289 16.5281 0.0288602 16.6851 0.126048 16.8082L2.4698 19.7768C2.58312 19.9204 2.7539 19.9997 2.9298 19.9997C2.99546 19.9997 3.06179 19.9886 3.12613 19.9657L6.54327 18.7497C6.70398 18.6925 6.83179 18.5681 6.89331 18.409L8.7496 13.6097C8.81757 13.4339 8.79687 13.2361 8.6939 13.0783Z" fill="#193B66"/>
<path d="M8.74951 13.6097L6.89326 18.4091C6.83154 18.5681 6.70381 18.6927 6.54326 18.7497L3.84717 19.7091V10.625L6.33037 10.1285C6.56514 10.0817 6.80498 10.1825 6.93584 10.3832L8.69365 13.0784C8.79678 13.2363 8.81748 13.4339 8.74951 13.6097Z" fill="#112B48"/>
<path d="M19.8518 14.7374L16.7268 10.3626C16.5916 10.1734 16.3574 10.082 16.1299 10.1297L12.0283 10.989C11.8586 11.0246 11.7134 11.1334 11.6317 11.2863L10.6161 13.1863C10.5251 13.3564 10.5238 13.5604 10.6124 13.7317L13.0668 18.4758C13.1084 18.5561 13.1679 18.6256 13.2409 18.6791L14.888 19.8863C15.1253 20.0602 15.4549 20.0312 15.6581 19.8183L19.7988 15.4826C19.9931 15.2792 20.0153 14.9663 19.8518 14.7374Z" fill="#193B66"/>
<path d="M19.7987 15.4825L15.6581 19.8183C15.5437 19.9382 15.3894 19.9996 15.2339 19.9996V10.3172L16.1296 10.1297C16.3573 10.082 16.5917 10.1734 16.7269 10.3625L19.8519 14.7373C20.0151 14.9662 19.9929 15.2791 19.7987 15.4825Z" fill="#112B48"/>
<path d="M13.4766 12.9297H6.44531C6.12172 12.9297 5.85938 13.192 5.85938 13.5156V19.4138C5.85938 19.7374 6.12172 19.9997 6.44531 19.9997H13.4766C13.8002 19.9997 14.0625 19.7374 14.0625 19.4138V13.5156C14.0625 13.192 13.8002 12.9297 13.4766 12.9297Z" fill="#193B66"/>
<path d="M14.0625 13.5156V19.4138C14.0625 19.7373 13.8 19.9997 13.4766 19.9997H9.96094V12.9297H13.4766C13.8 12.9297 14.0625 13.1922 14.0625 13.5156Z" fill="#112B48"/>
</svg>
