<svg width="20" height="20" viewBox="0 0 20 20" fill="none" xmlns="http://www.w3.org/2000/svg">
<path d="M19.992 19.4942C20.017 19.6192 19.9879 19.7484 19.9087 19.8442C19.8295 19.94 19.7087 19.9984 19.5837 19.9984H0.417039C0.292039 19.9984 0.171206 19.94 0.0920391 19.8442C0.0128724 19.7484 -0.0162943 19.6192 0.00870575 19.4942L0.783706 15.8317L0.962872 14.9984L1.93371 10.415L2.11287 9.58171L2.92537 5.74421C2.96704 5.55254 3.13787 5.41504 3.33371 5.41504H7.52537C7.67537 5.41504 7.81704 5.49837 7.88787 5.62754C7.96287 5.76087 7.95871 5.91921 7.87954 6.04837L6.99204 7.49837H10.0004C10.2295 7.49837 10.417 7.68587 10.417 7.91504V10.8234L13.1587 5.63587C13.2337 5.50254 13.3754 5.41504 13.5295 5.41504H16.667C16.8629 5.41504 17.0337 5.55254 17.0754 5.74421L17.8879 9.58171L18.067 10.415L19.0379 14.9984L19.217 15.8317L19.992 19.4942Z" fill="#4FC3F7"/>
<path d="M6.66715 9.16504C6.66715 9.16504 9.16715 9.16504 9.16715 6.66504H10.0005V9.99837H6.25049L6.66715 9.16504Z" fill="#29B6F6"/>
<path d="M2.91715 9.16471C2.91715 9.16471 5.83382 8.74805 5.83382 6.24805H6.66715L6.25049 9.99805L2.50049 9.58138L2.91715 9.16471Z" fill="#29B6F6"/>
<path d="M10.8335 9.58171L13.3335 6.66504L13.7502 9.58171H10.8335Z" fill="#29B6F6"/>
<path d="M14.1672 9.16536C14.1672 9.16536 16.2505 9.16536 15.8338 6.2487L16.6672 5.83203L17.5005 9.9987H13.7505V9.16536H14.1672Z" fill="#29B6F6"/>
<path d="M1.66699 14.5817C1.66699 14.5817 5.00033 14.5817 5.41699 10.415H5.83366V14.9984H1.66699V14.5817Z" fill="#29B6F6"/>
<path d="M6.25016 14.5817C6.25016 14.5817 9.16683 14.9984 9.16683 10.415H10.0002V15.415H5.8335L6.25016 14.5817Z" fill="#29B6F6"/>
<path d="M10.4172 14.5817C10.4172 14.5817 13.3338 14.5817 12.9172 10.415H13.7505L14.1672 14.9984H10.0005L10.4172 14.5817Z" fill="#29B6F6"/>
<path d="M14.5837 14.5817C14.5837 14.5817 17.0837 14.9984 16.667 10.415H17.5003L18.3337 14.9984H14.167L14.5837 14.5817Z" fill="#29B6F6"/>
<path d="M0.833659 18.7487C0.833659 18.7487 4.58366 19.1654 5.00033 15.832H5.41699L5.00033 19.1654H0.416992L0.833659 18.7487Z" fill="#29B6F6"/>
<path d="M5.8335 18.7487C5.8335 18.7487 9.16683 19.1654 9.16683 15.832H9.5835V19.1654H5.8335V18.7487Z" fill="#29B6F6"/>
<path d="M19.5838 19.9984H0.417181C0.291431 19.9984 0.172639 19.9416 0.0934727 19.844C0.014306 19.7463 -0.0166106 19.6181 0.00963938 19.4952L2.92631 5.74525C2.96701 5.55279 3.1371 5.41504 3.33385 5.41504H7.52556C7.67631 5.41504 7.81547 5.49662 7.88914 5.62804C7.96281 5.75966 7.95972 5.92079 7.88081 6.04937L6.9931 7.49837H10.0005C10.2306 7.49837 10.4172 7.68496 10.4172 7.91504V10.8225L13.1609 5.63762C13.2329 5.50071 13.3749 5.41504 13.5296 5.41504H16.6672C16.8639 5.41504 17.034 5.55279 17.0747 5.74525L19.9913 19.4952C20.0176 19.6181 19.9867 19.7463 19.9075 19.844C19.8283 19.9416 19.7096 19.9984 19.5838 19.9984ZM0.931514 19.165H19.0696L16.3297 6.24837H13.7811L10.3688 12.6935C10.2788 12.8626 10.0862 12.9484 9.90001 12.9027C9.71426 12.8567 9.58385 12.6898 9.58385 12.4984V8.33171H6.25051C6.09997 8.33171 5.96101 8.25033 5.88714 8.11908C5.81347 7.98766 5.81635 7.82671 5.89468 7.69812L6.78172 6.24837H3.67139L0.931514 19.165Z" fill="#F5F5F5"/>
<path d="M7.146 5.41504L6.70433 10.04L5.80016 19.9984H4.9585L5.871 9.96087L6.30433 5.41504H7.146Z" fill="#F5F5F5"/>
<path d="M10.4168 12.5862V19.9987H9.5835V12.5862C9.5835 12.307 9.771 12.082 10.0002 12.082C10.2293 12.082 10.4168 12.307 10.4168 12.5862Z" fill="#F5F5F5"/>
<path d="M18.067 10.4154H11.4004C11.1295 10.4154 10.9087 10.2279 10.9087 9.9987C10.9087 9.76953 11.1295 9.58203 11.4004 9.58203H17.8879L18.067 10.4154Z" fill="#F5F5F5"/>
<path d="M10.4169 9.9987C10.4169 10.2279 10.2044 10.4154 9.93776 10.4154H1.93359L2.11276 9.58203H9.93776C10.2044 9.58203 10.4169 9.76953 10.4169 9.9987Z" fill="#F5F5F5"/>
<path d="M19.217 15.8314H0.783691L0.962858 14.998H19.0379L19.217 15.8314Z" fill="#F5F5F5"/>
<path d="M10.417 18.7487C10.417 18.7487 13.3337 19.1654 13.3337 15.832H14.167V19.1654H10.417V18.7487Z" fill="#29B6F6"/>
<path d="M14.5835 18.7487C14.5835 18.7487 18.3335 19.1654 17.9168 15.832H18.3335L19.1668 19.1654H15.0002L14.5835 18.7487Z" fill="#29B6F6"/>
<path d="M15.0627 19.9988H14.2252L12.9461 6.18629C12.9252 5.95712 13.0961 5.75295 13.3252 5.73212C13.5544 5.71962 13.7586 5.88212 13.7794 6.11129L14.1294 9.96129L15.0627 19.9988Z" fill="#F5F5F5"/>
<path d="M14.1169 5.61119L11.2502 11.0279L10.3669 12.6945C10.2961 12.832 10.1502 12.9154 10.0002 12.9154C9.96689 12.9154 9.93356 12.9112 9.90023 12.9029C9.71273 12.857 9.58356 12.6904 9.58356 12.4987V8.33202H6.25023C6.10023 8.33202 5.96273 8.24868 5.88773 8.11952C5.81273 7.98619 5.81689 7.82785 5.89606 7.69868L10.4794 0.198685C10.5752 0.0403512 10.7669 -0.0346488 10.9461 0.0153512C11.1252 0.0653512 11.2502 0.227851 11.2502 0.415351V4.99868H13.7502C13.8961 4.99868 14.0336 5.07368 14.1086 5.19868C14.1836 5.32785 14.1877 5.48202 14.1169 5.61119Z" fill="#FFC107"/>
<path d="M14.1167 5.6112L11.2501 11.0279V7.4987H7.91673C7.76673 7.4987 7.62923 7.41536 7.55423 7.2862C7.47923 7.15286 7.4834 6.99453 7.56256 6.86536L11.2501 0.832031V4.9987H13.7501C13.8959 4.9987 14.0334 5.0737 14.1084 5.1987C14.1834 5.32786 14.1876 5.48203 14.1167 5.6112Z" fill="#FFD54F"/>
</svg>
