<svg width="18" height="16" viewBox="0 0 18 16" fill="none" xmlns="http://www.w3.org/2000/svg">
<path fill-rule="evenodd" clip-rule="evenodd" d="M8.1665 0.5H9.83317C13.9753 0.5 17.3332 3.85786 17.3332 8C17.3332 12.1421 13.9753 15.5 9.83317 15.5H3.99984C2.15889 15.5 0.666504 14.0076 0.666504 12.1667V8C0.666504 3.85786 4.02437 0.5 8.1665 0.5ZM8.99984 4.875C9.34501 4.875 9.62484 5.15482 9.62484 5.5V7.375H11.4998C11.845 7.375 12.1248 7.65482 12.1248 8C12.1248 8.34518 11.845 8.625 11.4998 8.625H9.62484V10.5C9.62484 10.8452 9.34502 11.125 8.99984 11.125C8.65466 11.125 8.37484 10.8452 8.37484 10.5V8.625H6.49984C6.15466 8.625 5.87484 8.34518 5.87484 8C5.87484 7.65482 6.15466 7.375 6.49984 7.375H8.37484V5.5C8.37484 5.15482 8.65466 4.875 8.99984 4.875Z" fill="#6CB549"/>
</svg>
