<svg width="20" height="20" viewBox="0 0 20 20" fill="none" xmlns="http://www.w3.org/2000/svg">
<g clip-path="url(#clip0_566_5811)">
<path d="M2.67383 1.2502V18.7502C2.67383 19.4376 3.23622 20 3.92363 20H16.077C16.7646 20 17.3272 19.4374 17.3272 18.7498V4.60373C17.3272 4.21992 17.1747 3.85184 16.9033 3.58043L13.7467 0.423843C13.4753 0.152471 13.1072 0 12.7234 0H3.92402C3.23642 0 2.67383 0.562588 2.67383 1.2502Z" fill="url(#paint0_linear_566_5811)"/>
<path d="M6.00418 9.64852H13.9955C14.1947 9.64852 14.3561 9.48707 14.3561 9.28789V8.40848C14.3561 8.2093 14.1947 8.04785 13.9955 8.04785H6.00418C5.80501 8.04785 5.64355 8.2093 5.64355 8.40848V9.28789C5.64355 9.48707 5.80501 9.64852 6.00418 9.64852Z" fill="#EBEFF0"/>
<path d="M6.00418 12.1475H13.9955C14.1947 12.1475 14.3561 11.9861 14.3561 11.7869V10.9075C14.3561 10.7083 14.1947 10.5469 13.9955 10.5469H6.00418C5.80501 10.5469 5.64355 10.7083 5.64355 10.9075V11.7869C5.64355 11.9861 5.80501 12.1475 6.00418 12.1475Z" fill="#EBEFF0"/>
<path d="M6.00418 14.6465H13.9955C14.1947 14.6465 14.3561 14.4851 14.3561 14.2859V13.4065C14.3561 13.2073 14.1947 13.0459 13.9955 13.0459H6.00418C5.80501 13.0459 5.64355 13.2073 5.64355 13.4065V14.2859C5.64355 14.4851 5.80501 14.6465 6.00418 14.6465Z" fill="#EBEFF0"/>
<path d="M5.90465 17.1446H9.94995C10.0941 17.1446 10.211 17.0277 10.211 16.8835V15.805C10.211 15.6608 10.0941 15.5439 9.94995 15.5439H5.90465C5.76046 15.5439 5.64355 15.6608 5.64355 15.805V16.8835C5.64355 17.0277 5.76046 17.1446 5.90465 17.1446Z" fill="#EBEFF0"/>
<path d="M13.7459 0.423396C13.56 0.237514 13.3287 0.107475 13.0781 0.0439453V4.11932L17.3264 8.36755V4.60324C17.3264 4.21944 17.1739 3.85136 16.9025 3.57995L13.7459 0.423396Z" fill="url(#paint1_linear_566_5811)"/>
<path d="M17.2841 4.25234C17.2887 4.27242 17.293 4.29199 17.2969 4.31085H13.4675C13.1964 4.31085 12.9766 4.09105 12.9766 3.81987V0.0224609C13.0065 0.0277943 13.0379 0.0340296 13.0704 0.041206C13.3558 0.104343 13.6161 0.251128 13.8228 0.457834L16.8681 3.50313C17.0741 3.70905 17.2186 3.96862 17.2841 4.25234Z" fill="url(#paint2_linear_566_5811)"/>
<path d="M17.3272 17.5371V18.7496C17.3272 19.4372 16.7646 19.9998 16.077 19.9998H3.92363C3.23622 19.9998 2.67383 19.4374 2.67383 18.75V17.5371H17.3272Z" fill="url(#paint3_linear_566_5811)"/>
</g>
<defs>
<linearGradient id="paint0_linear_566_5811" x1="6.16336" y1="7.79792" x2="15.6769" y2="17.3114" gradientUnits="userSpaceOnUse">
<stop stop-color="#7FAEF4"/>
<stop offset="1" stop-color="#4C8DF1"/>
</linearGradient>
<linearGradient id="paint1_linear_566_5811" x1="16.0823" y1="6.81242" x2="14.5725" y2="2.40065" gradientUnits="userSpaceOnUse">
<stop stop-color="#4C8DF1" stop-opacity="0"/>
<stop offset="1" stop-color="#4256AC"/>
</linearGradient>
<linearGradient id="paint2_linear_566_5811" x1="13.4619" y1="2.30274" x2="15.2157" y2="4.05654" gradientUnits="userSpaceOnUse">
<stop stop-color="#A7C5FD"/>
<stop offset="1" stop-color="#7FAEF4"/>
</linearGradient>
<linearGradient id="paint3_linear_566_5811" x1="10.0005" y1="18.1841" x2="10.0005" y2="20.1288" gradientUnits="userSpaceOnUse">
<stop stop-color="#4C8DF1" stop-opacity="0"/>
<stop offset="1" stop-color="#4256AC"/>
</linearGradient>
<clipPath id="clip0_566_5811">
<rect width="20" height="20" fill="white"/>
</clipPath>
</defs>
</svg>
