<svg width="18" height="18" viewBox="0 0 18 18" fill="none" xmlns="http://www.w3.org/2000/svg">
<g clip-path="url(#clip0_596_4956)">
<path d="M16.5 9V13.5C16.5 15.1569 15.1569 16.5 13.5 16.5H4.5C2.84315 16.5 1.5 15.1569 1.5 13.5V4.5C1.5 2.84315 2.84315 1.5 4.5 1.5H9M11.7648 3.01706C11.7648 3.01706 11.7648 4.08978 12.8375 5.16251C13.9102 6.23523 14.9829 6.23523 14.9829 6.23523M6.866 11.9922L9.11872 11.6704C9.44367 11.6239 9.74479 11.4734 9.9769 11.2413L16.0557 5.1625C16.6481 4.57006 16.6481 3.60951 16.0557 3.01706L14.9829 1.94434C14.3905 1.35189 13.4299 1.35189 12.8375 1.94434L6.75873 8.0231C6.52663 8.2552 6.37606 8.55633 6.32964 8.88128L6.00783 11.134C5.93631 11.6346 6.3654 12.0637 6.866 11.9922Z" stroke="white" stroke-width="1.125" stroke-linecap="round"/>
</g>
<defs>
<clipPath id="clip0_596_4956">
<rect width="18" height="18" fill="white"/>
</clipPath>
</defs>
</svg>
