<svg width="21" height="20" viewBox="0 0 21 20" fill="none" xmlns="http://www.w3.org/2000/svg">
    <path
        d="M6.7798 0.500643C7.4098 0.519803 8.0198 0.629803 8.6108 0.830803H8.6698C8.7098 0.849803 8.7398 0.870803 8.7598 0.889803C8.9808 0.960803 9.1898 1.0408 9.3898 1.1508L9.7698 1.3208C9.9198 1.4008 10.0998 1.5498 10.1998 1.6108C10.2998 1.6698 10.4098 1.7308 10.4998 1.7998C11.6108 0.950803 12.9598 0.490803 14.3498 0.500643C14.9808 0.500643 15.6108 0.589803 16.2098 0.790803C19.9008 1.9908 21.2308 6.0408 20.1198 9.5808C19.4898 11.3898 18.4598 13.0408 17.1108 14.3898C15.1798 16.2598 13.0608 17.9198 10.7798 19.3498L10.5298 19.5008L10.2698 19.3398C7.9808 17.9198 5.8498 16.2598 3.9008 14.3798C2.5608 13.0308 1.5298 11.3898 0.889803 9.5808C-0.240197 6.0408 1.0898 1.9908 4.8208 0.769803C5.1108 0.669803 5.4098 0.599803 5.7098 0.560803H5.8298C6.1108 0.519803 6.3898 0.500643 6.6698 0.500643H6.7798ZM15.6898 3.6608C15.2798 3.5198 14.8298 3.7408 14.6798 4.1608C14.5398 4.5808 14.7598 5.0408 15.1798 5.1898C15.8208 5.4298 16.2498 6.0608 16.2498 6.7598V6.7908C16.2308 7.0198 16.2998 7.2408 16.4398 7.4108C16.5798 7.5808 16.7898 7.6798 17.0098 7.7008C17.4198 7.6898 17.7698 7.3608 17.7998 6.9398V6.8208C17.8298 5.4198 16.9808 4.1508 15.6898 3.6608Z"
        fill="#C7CAD4" />
</svg>
