<svg width="16" height="16" viewBox="0 0 16 16" fill="none" xmlns="http://www.w3.org/2000/svg">
<defs>
<linearGradient id="paint0_linear_1_4668" x1="0" y1="7.61905" x2="16.0002" y2="7.61905" gradientUnits="userSpaceOnUse">
<stop stop-color="#9B51E0"/>
<stop offset="1" stop-color="#005BFF"/>
</linearGradient>
</defs>
<path d="M3.5 0C1.57885 0 0 1.57885 0 3.5C0 5.42115 1.57885 7 3.5 7C5.42115 7 7 5.42115 7 3.5C7 1.57885 5.42115 0 3.5 0ZM11.9805 0.988281C11.8181 0.992756 11.6593 1.03671 11.5177 1.11634C11.3761 1.19597 11.2561 1.30888 11.168 1.44531L3.16797 13.4453C3.09267 13.5545 3.03984 13.6776 3.01257 13.8074C2.9853 13.9373 2.98413 14.0712 3.00913 14.2015C3.03412 14.3318 3.08479 14.4558 3.15817 14.5663C3.23155 14.6768 3.32618 14.7716 3.43656 14.8452C3.54693 14.9187 3.67084 14.9696 3.80107 14.9949C3.9313 15.0201 4.06525 15.0192 4.19512 14.9921C4.32499 14.9651 4.44818 14.9125 4.55753 14.8374C4.66687 14.7623 4.76019 14.6662 4.83203 14.5547L12.832 2.55469C12.9366 2.4026 12.9971 2.22454 13.0067 2.04021C13.0163 1.85589 12.9748 1.67249 12.8866 1.51033C12.7985 1.34817 12.6672 1.21357 12.5072 1.12143C12.3473 1.02929 12.165 0.983205 11.9805 0.988281ZM3.5 2C4.34027 2 5 2.65973 5 3.5C5 4.34027 4.34027 5 3.5 5C2.65973 5 2 4.34027 2 3.5C2 2.65973 2.65973 2 3.5 2ZM12.5 9C10.5788 9 9 10.5788 9 12.5C9 14.4212 10.5788 16 12.5 16C14.4212 16 16 14.4212 16 12.5C16 10.5788 14.4212 9 12.5 9ZM12.5 11C13.3403 11 14 11.6597 14 12.5C14 13.3403 13.3403 14 12.5 14C11.6597 14 11 13.3403 11 12.5C11 11.6597 11.6597 11 12.5 11Z" fill="#6CB549"/>
</svg>
