<svg width="22" height="22" viewBox="0 0 22 22" fill="none" xmlns="http://www.w3.org/2000/svg">
<path d="M5.34598 10.8291H4.60363C4.23949 10.8291 3.94312 11.1255 3.94312 11.4896V16.2853C3.94312 16.6494 4.23949 16.9458 4.60363 16.9458H5.34598C5.71009 16.9458 6.00647 16.6494 6.00647 16.2853V11.4896C6.00647 11.1255 5.71009 10.8291 5.34598 10.8291Z" fill="#6CB549"/>
<path d="M17.6783 13.0254C17.4384 12.8448 17.1364 12.7883 16.8485 12.8702L14.1105 13.6549C13.927 14.1573 13.4472 14.5214 12.8826 14.5214H9.6253C9.47005 14.5214 9.34302 14.3944 9.34302 14.2392C9.34302 14.0839 9.47005 13.9569 9.6253 13.9569H12.8911C13.4189 13.9484 13.6871 13.3161 13.3738 12.8899C13.1706 12.6105 12.8431 12.4298 12.4705 12.4298H11.5899C11.2709 12.4298 10.9576 12.3056 10.7064 12.0826C10.4439 11.8512 10.0064 11.5153 9.38818 11.233C8.47931 10.8181 7.20911 11.185 6.56836 11.4222C6.57118 11.4447 6.57118 11.4673 6.57118 11.4899V16.1529C7.70589 16.342 11.381 16.9461 12.5411 16.9461C13.6927 16.9461 16.4251 15.323 17.5795 14.6033C17.8166 14.4565 17.9973 14.2222 18.0424 13.9484C18.1045 13.5871 17.9634 13.2399 17.6783 13.0254Z" fill="#6CB549"/>
<path d="M10.489 8.4776C10.489 10.3659 12.0245 11.8986 13.9101 11.8986C15.7984 11.8986 17.3339 10.3659 17.3339 8.4776C17.3339 6.58926 15.7984 5.05371 13.9101 5.05371C12.0245 5.05371 10.489 6.58926 10.489 8.4776ZM14.1935 6.66285V6.8276C14.6722 6.93854 15.0281 7.3196 15.0281 7.77565C15.0281 7.93165 14.9019 8.05792 14.7459 8.05792C14.5898 8.05792 14.4636 7.93165 14.4636 7.77565C14.4636 7.54852 14.2106 7.35637 13.9112 7.35637C13.6118 7.35637 13.3588 7.54852 13.3588 7.77565C13.3588 7.9992 13.697 8.13177 13.9806 8.20372C14.6756 8.37987 15.0281 8.70789 15.0281 9.17898C15.0281 9.63503 14.6722 10.0161 14.1935 10.127V10.2918C14.1935 10.4478 14.0672 10.574 13.9112 10.574C13.7552 10.574 13.6289 10.4478 13.6289 10.2918V10.127C13.1502 10.0161 12.7943 9.63503 12.7943 9.17898C12.7943 9.02295 12.9205 8.89671 13.0765 8.89671C13.2326 8.89671 13.3588 9.02295 13.3588 9.17898C13.3588 9.40611 13.6118 9.59824 13.9112 9.59824C14.2106 9.59824 14.4636 9.40611 14.4636 9.17898C14.4636 9.11198 14.4636 8.90857 13.842 8.75117C12.9759 8.53147 12.7943 8.09952 12.7943 7.77565C12.7943 7.3196 13.1502 6.93854 13.6289 6.8276V6.66285C13.6289 6.50684 13.7552 6.38057 13.9112 6.38057C14.0672 6.38057 14.1935 6.50684 14.1935 6.66285Z" fill="#6CB549"/>
</svg>
