<svg width="18" height="18" viewBox="0 0 18 18" fill="none" xmlns="http://www.w3.org/2000/svg">
<path d="M17.3334 9.00033C17.3334 13.6027 13.6025 17.3337 9.00008 17.3337M17.3334 9.00033C17.3334 4.39795 13.6025 0.666992 9.00008 0.666992M17.3334 9.00033C17.3334 7.61961 13.6025 6.50033 9.00008 6.50032C4.39771 6.50032 0.666748 7.61961 0.666748 9.00033M17.3334 9.00033C17.3334 10.381 13.6025 11.5003 9.00008 11.5003C4.39771 11.5003 0.666748 10.381 0.666748 9.00033M9.00008 17.3337C4.39771 17.3337 0.666748 13.6027 0.666748 9.00033M9.00008 17.3337C10.841 17.3337 12.3334 13.6027 12.3334 9.00033C12.3334 4.39795 10.841 0.666992 9.00008 0.666992M9.00008 17.3337C7.15913 17.3337 5.66675 13.6027 5.66675 9.00033C5.66675 4.39795 7.15913 0.666992 9.00008 0.666992M0.666748 9.00033C0.666748 4.39795 4.39771 0.666992 9.00008 0.666992" stroke="#6CB549" stroke-width="1.25"/>
</svg>
