<svg width="21" height="21" viewBox="0 0 21 21" fill="none" xmlns="http://www.w3.org/2000/svg">
<defs>
<linearGradient id="paint0_linear_1_4638" x1="0" y1="10" x2="21" y2="10" gradientUnits="userSpaceOnUse">
<stop stop-color="#9B51E0"/>
<stop offset="1" stop-color="#005BFF"/>
</linearGradient>
</defs>
<path d="M9 0C6.80271 0 5 1.80271 5 4C5 6.19729 6.80271 8 9 8C11.1973 8 13 6.19729 13 4C13 1.80271 11.1973 0 9 0ZM9 2C10.1164 2 11 2.88359 11 4C11 5.11641 10.1164 6 9 6C7.88359 6 7 5.11641 7 4C7 2.88359 7.88359 2 9 2ZM9 11C5.859 11 0 12.546 0 15.5V18H10.1719L10.5859 17.5859L12.1719 16H2V15.5C2 14.631 5.708 13 9 13C10.801 13 12.7227 13.4892 14.0977 14.0742L15.5977 12.5742C13.6157 11.5362 10.843 11 9 11ZM19.207 12C19.0792 12 18.951 12.049 18.8535 12.1465L17.8535 13.1465L19.8535 15.1465L20.8535 14.1465C21.0485 13.9515 21.0485 13.6345 20.8535 13.4395L19.5605 12.1465C19.4625 12.049 19.3349 12 19.207 12ZM17.1465 13.8535L12 19V21H14L19.1465 15.8535L17.1465 13.8535Z" fill="url(#paint0_linear_1_4638)"/>
</svg>
