<svg width="18" height="18" viewBox="0 0 18 18" fill="none" xmlns="http://www.w3.org/2000/svg">
<path fill-rule="evenodd" clip-rule="evenodd" d="M4.5 2.25C2.84315 2.25 1.5 3.59315 1.5 5.25V12.75C1.5 14.4069 2.84315 15.75 4.5 15.75H13.5C15.1569 15.75 16.5 14.4069 16.5 12.75V5.25C16.5 3.59315 15.1569 2.25 13.5 2.25H4.5ZM4.81202 5.53194C4.55354 5.35962 4.2043 5.42946 4.03197 5.68795C3.85965 5.94643 3.9295 6.29567 4.18798 6.468L7.02388 8.3586C8.22053 9.15636 9.77948 9.15636 10.9761 8.3586L13.812 6.468C14.0705 6.29567 14.1404 5.94643 13.968 5.68795C13.7957 5.42946 13.4465 5.35962 13.188 5.53194L10.3521 7.42254C9.53333 7.96838 8.46668 7.96838 7.64792 7.42254L4.81202 5.53194Z" fill="#9A9C99"/>
</svg>
