<svg width="18" height="20" viewBox="0 0 18 20" fill="none" xmlns="http://www.w3.org/2000/svg">
<defs>
<linearGradient id="paint0_linear_1_4662" x1="0" y1="9.52381" x2="18.0002" y2="9.52381" gradientUnits="userSpaceOnUse">
<stop stop-color="#9B51E0"/>
<stop offset="1" stop-color="#005BFF"/>
</linearGradient>
</defs>
<path d="M0 0V20H2C2 19.448 2.448 19 3 19C3.552 19 4 19.448 4 20H6C6 19.448 6.448 19 7 19C7.552 19 8 19.448 8 20H10C10 19.448 10.448 19 11 19C11.552 19 12 19.448 12 20H14C14 19.448 14.448 19 15 19C15.552 19 16 19.448 16 20H18V0H16C16 0.552 15.552 1 15 1C14.448 1 14 0.552 14 0H12C12 0.552 11.552 1 11 1C10.448 1 10 0.552 10 0H8C8 0.552 7.552 1 7 1C6.448 1 6 0.552 6 0H4C4 0.552 3.552 1 3 1C2.448 1 2 0.552 2 0H0ZM2 3H16V17H15H11H7H3H2V3ZM4 5V7H14V5H4ZM4 9V11H14V9H4ZM4 13V15H14V13H4Z" fill="url(#paint0_linear_1_4662)"/>

</svg>
