<svg width="22" height="22" viewBox="0 0 22 22" fill="none" xmlns="http://www.w3.org/2000/svg">
<path fill-rule="evenodd" clip-rule="evenodd" d="M7.33336 16.5C5.98333 16.5 4.88892 15.4056 4.88892 14.0556V13.4444C4.88892 13.1069 5.17003 12.8433 5.48896 12.7329C6.2068 12.4844 6.72225 11.8024 6.72225 11C6.72225 10.1976 6.2068 9.51564 5.48896 9.26712C5.17003 9.1567 4.88892 8.89306 4.88892 8.55556V7.94444C4.88892 6.59442 5.98333 5.5 7.33336 5.5H14.6667C16.0167 5.5 17.1111 6.59442 17.1111 7.94444V8.55556C17.1111 8.89306 16.83 9.1567 16.5111 9.26712C15.7933 9.51564 15.2778 10.1976 15.2778 11C15.2778 11.8024 15.7933 12.4844 16.5111 12.7329C16.83 12.8433 17.1111 13.1069 17.1111 13.4444V14.0556C17.1111 15.4056 16.0167 16.5 14.6667 16.5H7.33336ZM9.16669 9.77778C9.5042 9.77778 9.7778 9.50417 9.7778 9.16667C9.7778 8.82916 9.5042 8.55556 9.16669 8.55556C8.82919 8.55556 8.55558 8.82916 8.55558 9.16667C8.55558 9.50417 8.82919 9.77778 9.16669 9.77778ZM13.4445 12.8333C13.4445 13.1708 13.1709 13.4444 12.8334 13.4444C12.4959 13.4444 12.2222 13.1708 12.2222 12.8333C12.2222 12.4958 12.4959 12.2222 12.8334 12.2222C13.1709 12.2222 13.4445 12.4958 13.4445 12.8333ZM13.1575 9.49076C13.3364 9.31177 13.3364 9.02157 13.1575 8.84258C12.9785 8.66359 12.6883 8.66359 12.5093 8.84258L8.8426 12.5092C8.66361 12.6882 8.66361 12.9784 8.8426 13.1574C9.02159 13.3364 9.31179 13.3364 9.49078 13.1574L13.1575 9.49076Z" fill="#6CB549"/>
</svg>
