<svg width="26" height="26" viewBox="0 0 26 26" fill="none" xmlns="http://www.w3.org/2000/svg">
<path fill-rule="evenodd" clip-rule="evenodd" d="M8.71456 19.4284C7.13661 19.4284 5.85742 18.1492 5.85742 16.5713V15.857C5.85742 15.4625 6.186 15.1544 6.55877 15.0253C7.3978 14.7348 8.00028 13.9377 8.00028 12.9999C8.00028 12.062 7.3978 11.2649 6.55878 10.9744C6.186 10.8453 5.85742 10.5372 5.85742 10.1427V9.42843C5.85742 7.85048 7.13661 6.57129 8.71456 6.57129H17.286C18.8639 6.57129 20.1431 7.85048 20.1431 9.42843V10.1427C20.1431 10.5372 19.8146 10.8453 19.4418 10.9744C18.6028 11.2649 18.0003 12.062 18.0003 12.9999C18.0003 13.9377 18.6028 14.7348 19.4418 15.0253C19.8146 15.1544 20.1431 15.4625 20.1431 15.857V16.5713C20.1431 18.1492 18.8639 19.4284 17.286 19.4284H8.71456ZM10.8574 11.5713C11.2519 11.5713 11.5717 11.2515 11.5717 10.857C11.5717 10.4625 11.2519 10.1427 10.8574 10.1427C10.4629 10.1427 10.1431 10.4625 10.1431 10.857C10.1431 11.2515 10.4629 11.5713 10.8574 11.5713ZM15.8574 15.1427C15.8574 15.5372 15.5376 15.857 15.1431 15.857C14.7486 15.857 14.4289 15.5372 14.4289 15.1427C14.4289 14.7482 14.7486 14.4284 15.1431 14.4284C15.5376 14.4284 15.8574 14.7482 15.8574 15.1427ZM15.5219 11.2358C15.7312 11.0266 15.7312 10.6874 15.5219 10.4782C15.3127 10.269 14.9735 10.269 14.7643 10.4782L10.4786 14.7639C10.2694 14.9731 10.2694 15.3123 10.4786 15.5215C10.6878 15.7307 11.027 15.7307 11.2362 15.5215L15.5219 11.2358Z" fill="#FFD000"/>
</svg>
