<svg width="84" height="99" viewBox="0 0 84 99" fill="none" xmlns="http://www.w3.org/2000/svg">
<path fill-rule="evenodd" clip-rule="evenodd" d="M75.125 55.9912H8.875V86.6517C8.875 88.1142 9.83397 89.4044 11.2352 89.8251C17.8916 91.8209 36.6106 97.4372 41.0477 98.7688C41.6687 98.9543 42.3313 98.9543 42.9523 98.7688C47.3894 97.4372 66.1084 91.8209 72.7648 89.8251C74.166 89.4044 75.125 88.1142 75.125 86.6517C75.125 78.9733 75.125 55.9912 75.125 55.9912Z" fill="url(#paint0_linear_601_13729)"/>
<path fill-rule="evenodd" clip-rule="evenodd" d="M75.1252 55.9912H42.0002C42.0002 55.9912 41.6789 98.908 42.0002 98.908C42.3215 98.908 42.6412 98.8616 42.9526 98.7688C47.3897 97.4372 66.1086 91.8209 72.7651 89.8251C74.1663 89.4044 75.1252 88.1142 75.1252 86.6517C75.1252 78.9733 75.1252 55.9912 75.1252 55.9912Z" fill="url(#paint1_linear_601_13729)"/>
<path fill-rule="evenodd" clip-rule="evenodd" d="M41.9998 66.7386L8.87481 55.9912C8.87481 55.9912 3.06634 64.6037 0.469342 68.4528C0.177842 68.8851 0.106623 69.4267 0.27556 69.9186C0.446154 70.4105 0.835373 70.7931 1.33059 70.9554C7.62269 72.9992 26.2489 79.0512 31.1348 80.6379C31.8354 80.8664 32.6039 80.6031 33.018 79.9919C35.239 76.7142 41.9998 66.7386 41.9998 66.7386Z" fill="url(#paint2_linear_601_13729)"/>
<path fill-rule="evenodd" clip-rule="evenodd" d="M75.125 55.9912L42 66.7386C42 66.7386 48.7608 76.7142 50.9818 79.9919C51.3959 80.6031 52.1644 80.8664 52.865 80.6379C57.7509 79.0512 76.3771 72.9992 82.6692 70.9554C83.1644 70.7931 83.5537 70.4105 83.7243 69.9186C83.8932 69.4267 83.822 68.8851 83.5305 68.4528C80.9335 64.6037 75.125 55.9912 75.125 55.9912Z" fill="url(#paint3_linear_601_13729)"/>
<path fill-rule="evenodd" clip-rule="evenodd" d="M33.9818 33.4147C33.5678 32.8068 32.8009 32.5435 32.1003 32.772C27.2177 34.3571 8.58655 40.4107 2.29446 42.4561C1.79924 42.6168 1.40836 42.9994 1.23943 43.4913C1.07049 43.9832 1.14171 44.5264 1.43321 44.9571C3.82483 48.5048 8.87474 55.991 8.87474 55.991L41.9997 45.2072C41.9997 45.2072 36.0505 36.4572 33.9818 33.4147Z" fill="url(#paint4_linear_601_13729)"/>
<path fill-rule="evenodd" clip-rule="evenodd" d="M82.5665 44.9571C82.858 44.5264 82.9293 43.9832 82.7603 43.4913C82.5914 42.9994 82.2005 42.6168 81.7053 42.4561C75.4132 40.4107 56.782 34.3571 51.8994 32.772C51.1988 32.5435 50.432 32.8068 50.0179 33.4147C47.9492 36.4572 42 45.2072 42 45.2072L75.125 55.991C75.125 55.991 80.1749 48.5048 82.5665 44.9571Z" fill="url(#paint5_linear_601_13729)"/>
<path fill-rule="evenodd" clip-rule="evenodd" d="M75.125 55.9909L42 45.207L8.875 55.9909L42 66.7383L75.125 55.9909Z" fill="url(#paint6_linear_601_13729)"/>
<path fill-rule="evenodd" clip-rule="evenodd" d="M42 66.7383V45.207L8.875 55.9909L42 66.7383Z" fill="url(#paint7_linear_601_13729)"/>
<path fill-rule="evenodd" clip-rule="evenodd" d="M35.3454 49.9629C34.6564 49.5124 34.0353 49.0305 33.4838 48.5253C32.8113 47.9075 31.7629 47.9523 31.1435 48.6264C30.5257 49.2988 30.5704 50.3472 31.2445 50.965C31.9219 51.5877 32.6855 52.1807 33.5335 52.7355C34.2986 53.2357 35.3255 53.0204 35.8257 52.2552C36.3259 51.49 36.1106 50.4631 35.3454 49.9629Z" fill="#6CB549"/>
<path fill-rule="evenodd" clip-rule="evenodd" d="M30.1836 44.8754C29.6917 44.2079 29.276 43.5371 28.9348 42.8663C28.5208 42.0515 27.522 41.7268 26.7072 42.1409C25.8923 42.555 25.5677 43.5537 25.9817 44.3686C26.4024 45.1934 26.9125 46.0198 27.5171 46.8397C28.0587 47.5751 29.0955 47.7324 29.8325 47.1908C30.5679 46.6476 30.7252 45.6108 30.1836 44.8754Z" fill="#6CB549"/>
<path fill-rule="evenodd" clip-rule="evenodd" d="M27.7622 38.1167C27.7788 37.4493 27.8765 36.8017 28.0553 36.1806C28.3071 35.3028 27.7986 34.3835 26.9192 34.1318C26.0413 33.88 25.1221 34.3885 24.8704 35.268C24.617 36.1557 24.4745 37.0816 24.4497 38.0339C24.4282 38.9482 25.1503 39.7084 26.0645 39.7299C26.9788 39.7531 27.739 39.031 27.7622 38.1167Z" fill="#6CB549"/>
<path fill-rule="evenodd" clip-rule="evenodd" d="M30.3105 32.5847C30.7362 32.1906 31.2132 31.8262 31.7349 31.4966C32.5084 31.008 32.7402 29.9844 32.2533 29.2126C31.7647 28.4391 30.7411 28.2073 29.9677 28.6942C29.2671 29.1364 28.6311 29.625 28.0597 30.155C27.3889 30.7761 27.3491 31.8245 27.9702 32.4953C28.5913 33.1661 29.6397 33.2058 30.3105 32.5847Z" fill="#6CB549"/>
<path fill-rule="evenodd" clip-rule="evenodd" d="M36.4684 29.7269C37.3015 29.5728 38.1843 29.4734 39.1151 29.4354C40.0293 29.3956 40.7382 28.6221 40.7001 27.7095C40.662 26.7969 39.8886 26.0864 38.9743 26.1245C37.8812 26.1709 36.8444 26.2885 35.8655 26.469C34.9678 26.6363 34.3716 27.5009 34.5389 28.3985C34.7045 29.2979 35.5691 29.8925 36.4684 29.7269Z" fill="#6CB549"/>
<path fill-rule="evenodd" clip-rule="evenodd" d="M45.1014 29.6293C46.5141 29.6458 47.8292 29.5961 49.0499 29.4885C49.9608 29.4073 50.6349 28.6024 50.5537 27.6915C50.4726 26.7822 49.6676 26.1081 48.7567 26.1892C47.6387 26.287 46.4346 26.3333 45.1395 26.3168C44.2252 26.3068 43.4749 27.0406 43.465 27.9531C43.4534 28.8674 44.1871 29.6193 45.1014 29.6293Z" fill="#6CB549"/>
<path fill-rule="evenodd" clip-rule="evenodd" d="M54.4946 28.4742C56.1343 27.9723 57.5189 27.3297 58.6783 26.5927C59.4484 26.1008 59.677 25.0772 59.1851 24.3054C58.6948 23.5352 57.6696 23.3067 56.8978 23.7986C55.9653 24.3915 54.8474 24.9016 53.5257 25.3058C52.6529 25.5741 52.1593 26.4999 52.4276 27.3744C52.6943 28.2489 53.6218 28.7408 54.4946 28.4742Z" fill="#6CB549"/>
<path fill-rule="evenodd" clip-rule="evenodd" d="M62.9244 21.9566C63.7062 20.3401 64.006 18.6309 63.9298 16.9829C63.8867 16.0687 63.1099 15.3631 62.1973 15.4062C61.2848 15.4492 60.5775 16.2244 60.6206 17.1369C60.6736 18.2566 60.4715 19.4176 59.9415 20.5157C59.544 21.3389 59.8885 22.3309 60.7117 22.7284C61.5349 23.1259 62.5269 22.7798 62.9244 21.9566Z" fill="#6CB549"/>
<path fill-rule="evenodd" clip-rule="evenodd" d="M61.8695 11.1262C60.6621 9.49482 59.024 8.35864 57.2386 7.9926C56.3426 7.81042 55.4664 8.38679 55.2826 9.28282C55.1004 10.1789 55.6784 11.055 56.5728 11.2389C57.603 11.4492 58.5106 12.1564 59.2079 13.0988C59.7528 13.8325 60.7913 13.9866 61.525 13.4433C62.2604 12.8984 62.4144 11.8599 61.8695 11.1262Z" fill="#6CB549"/>
<path fill-rule="evenodd" clip-rule="evenodd" d="M40.2324 8.31425C42.0245 -1.8336 57.5551 -1.17772 48.5137 8.31425H40.2324Z" fill="url(#paint8_linear_601_13729)"/>
<path fill-rule="evenodd" clip-rule="evenodd" d="M40.2324 10.8848C42.0245 21.031 57.5551 20.3767 48.5137 10.8848H40.2324Z" fill="url(#paint9_linear_601_13729)"/>
<path fill-rule="evenodd" clip-rule="evenodd" d="M40.083 11.2725H51.1733C52.0875 11.2725 52.8295 10.5305 52.8295 9.61621C52.8295 8.70196 52.0875 7.95996 51.1733 7.95996H40.083C39.1704 7.95996 38.4268 8.70196 38.4268 9.61621C38.4268 10.5305 39.1704 11.2725 40.083 11.2725Z" fill="#6CB549"/>
<defs>
<linearGradient id="paint0_linear_601_13729" x1="8.875" y1="77.4496" x2="75.125" y2="77.4496" gradientUnits="userSpaceOnUse">
<stop stop-color="#CADCF0"/>
<stop offset="1" stop-color="#A4BBDB"/>
</linearGradient>
<linearGradient id="paint1_linear_601_13729" x1="41.8578" y1="77.4496" x2="75.1252" y2="77.4496" gradientUnits="userSpaceOnUse">
<stop stop-color="#A4BBDB"/>
<stop offset="1" stop-color="#8DA3BE"/>
</linearGradient>
<linearGradient id="paint2_linear_601_13729" x1="9.09509" y1="55.978" x2="13.7247" y2="86.6076" gradientUnits="userSpaceOnUse">
<stop stop-color="#E9F3FC"/>
<stop offset="1" stop-color="#CADCF0"/>
</linearGradient>
<linearGradient id="paint3_linear_601_13729" x1="42.1342" y1="66.626" x2="77.0541" y2="86.7095" gradientUnits="userSpaceOnUse">
<stop stop-color="#E9F3FC"/>
<stop offset="1" stop-color="#CADCF0"/>
</linearGradient>
<linearGradient id="paint4_linear_601_13729" x1="4.53868" y1="49.5631" x2="9.53565" y2="26.0074" gradientUnits="userSpaceOnUse">
<stop stop-color="#E9F3FC"/>
<stop offset="1" stop-color="#CADCF0"/>
</linearGradient>
<linearGradient id="paint5_linear_601_13729" x1="50.8676" y1="32.3729" x2="52.6543" y2="61.4479" gradientUnits="userSpaceOnUse">
<stop stop-color="#E9F3FC"/>
<stop offset="1" stop-color="#CADCF0"/>
</linearGradient>
<linearGradient id="paint6_linear_601_13729" x1="8.875" y1="55.9727" x2="75.125" y2="55.9727" gradientUnits="userSpaceOnUse">
<stop stop-color="#CADCF0"/>
<stop offset="1" stop-color="#A4BBDB"/>
</linearGradient>
<linearGradient id="paint7_linear_601_13729" x1="45.392" y1="44.7251" x2="46.1058" y2="71.4785" gradientUnits="userSpaceOnUse">
<stop stop-color="#A4BBDB"/>
<stop offset="1" stop-color="#8DA3BE"/>
</linearGradient>
<linearGradient id="paint8_linear_601_13729" x1="40.2324" y1="4.63075" x2="51.321" y2="4.63075" gradientUnits="userSpaceOnUse">
<stop stop-color="#E9F3FC"/>
<stop offset="1" stop-color="#CADCF0"/>
</linearGradient>
<linearGradient id="paint9_linear_601_13729" x1="40.2324" y1="14.5683" x2="51.321" y2="14.5683" gradientUnits="userSpaceOnUse">
<stop stop-color="#E9F3FC"/>
<stop offset="1" stop-color="#CADCF0"/>
</linearGradient>
</defs>
</svg>
