<svg width="20" height="21" viewBox="0 0 20 21" fill="none" xmlns="http://www.w3.org/2000/svg">
<path fill-rule="evenodd" clip-rule="evenodd" d="M10 3.625C13.797 3.625 16.875 6.70304 16.875 10.5C16.875 14.297 13.797 17.375 10 17.375C6.20304 17.375 3.125 14.297 3.125 10.5C3.125 10.1548 2.84518 9.875 2.5 9.875C2.15482 9.875 1.875 10.1548 1.875 10.5C1.875 14.9873 5.51269 18.625 10 18.625C14.4873 18.625 18.125 14.9873 18.125 10.5C18.125 6.01269 14.4873 2.375 10 2.375C7.69081 2.375 5.60709 3.33851 4.12837 4.88409V3C4.12837 2.65482 3.84855 2.375 3.50337 2.375C3.15819 2.375 2.87837 2.65482 2.87837 3V6.75C2.87837 7.09518 3.15819 7.375 3.50337 7.375H7.1875C7.53268 7.375 7.8125 7.09518 7.8125 6.75C7.8125 6.40482 7.53268 6.125 7.1875 6.125H4.69636C5.95794 4.59735 7.86568 3.625 10 3.625Z" fill="#0E0E0E"/>
</svg>
