<svg width="20" height="21" viewBox="0 0 20 21" fill="none" xmlns="http://www.w3.org/2000/svg">
<path fill-rule="evenodd" clip-rule="evenodd" d="M2.32695 3.33295L8.53937 0.571871C9.42588 0.177866 10.4378 0.177866 11.3243 0.57187L17.5198 3.3254C18.7675 3.87995 19.5808 5.12664 19.5122 6.49035C19.1542 13.6093 17.2338 16.6051 11.7078 20.2568C10.633 20.967 9.23193 20.9654 8.15674 20.2557C2.65404 16.6237 0.653313 13.6773 0.335608 6.47248C0.275873 5.11782 1.08785 3.88366 2.32695 3.33295ZM13.6299 8.94775C13.8637 8.68055 13.8367 8.27442 13.5695 8.04062C13.3023 7.80683 12.8961 7.8339 12.6623 8.1011L9.45241 11.7696C9.3769 11.8559 9.24683 11.8674 9.15728 11.7958L7.11915 10.1653C6.84191 9.9435 6.43737 9.98845 6.21557 10.2657C5.99378 10.5429 6.03873 10.9475 6.31597 11.1693L8.35411 12.7998C8.98092 13.3012 9.89142 13.2203 10.42 12.6162L13.6299 8.94775Z" fill="#1F62E2"/>
</svg>
