<svg width="22" height="22" viewBox="0 0 22 22" fill="none" xmlns="http://www.w3.org/2000/svg">
<g clip-path="url(#clip0_448_2564)">
<path d="M7.22406 12.9757L8.18025 13.6131C8.37762 13.7449 8.4309 14.0116 8.29942 14.2089C8.16744 14.4071 7.89967 14.4593 7.7033 14.3281L6.32831 13.4114C6.11058 13.2661 6.07308 12.9626 6.24553 12.7686C6.45527 12.5325 6.58962 12.3691 6.85396 12.1613L5.51478 9.21544C5.24723 8.62678 4.58094 8.33173 3.96534 8.52852C3.76425 8.59297 3.63964 8.79407 3.67144 9.00289L4.52307 14.577C4.5987 15.0712 4.84591 15.5263 5.21973 15.8583L6.67435 17.1517V17.9039C6.67435 18.1411 6.86685 18.3336 7.10404 18.3336H10.5701V13.2313L9.72195 12.7366C8.911 12.2636 7.90926 12.373 7.22406 12.9757Z" fill="#6CB549"/>
<path d="M18.0345 8.52852C17.4189 8.33173 16.7526 8.62678 16.4851 9.21544L15.1459 12.1613C15.4091 12.3682 15.5459 12.534 15.7543 12.7686C15.9269 12.9628 15.8891 13.2662 15.6715 13.4114L14.2965 14.3281C14.1002 14.4593 13.8324 14.4071 13.7004 14.2089C13.5689 14.0116 13.6222 13.7449 13.8196 13.6131L14.7758 12.9757C14.0906 12.373 13.0888 12.2636 12.2779 12.7366L11.4297 13.2313V18.3336H14.8958C15.133 18.3336 15.3255 18.1411 15.3255 17.9039V17.1517L16.7801 15.8583C17.1539 15.5263 17.4011 15.0712 17.4768 14.577L18.3284 9.00289C18.3602 8.79407 18.2356 8.59297 18.0345 8.52852Z" fill="#6CB549"/>
<path d="M15.2828 7.84323C15.4632 7.41011 15.5546 6.95235 15.5546 6.48314C15.5546 4.93026 14.2913 3.66699 12.7385 3.66699C12.074 3.66699 11.4357 3.91374 11 4.26769C10.5655 3.91463 9.92715 3.66699 9.26146 3.66699C7.70858 3.66699 6.44531 4.93026 6.44531 6.48314C6.44531 6.95235 6.53669 7.41011 6.71716 7.84323C7.3422 9.34311 8.37889 10.625 9.71492 11.55C10.4822 12.0811 11.5143 12.0829 12.285 11.55C13.621 10.625 14.6577 9.34311 15.2828 7.84323ZM12.2526 8.8928C12.1743 9.35826 11.8516 9.72816 11.4283 9.88064C11.4147 10.1057 11.2284 10.2841 11 10.2841C10.7885 10.2841 10.6131 10.1312 10.5773 9.93006C10.3801 9.89645 10.2006 9.82435 9.9751 9.67843C9.77882 9.55139 9.70919 9.28994 9.82981 9.08965C9.9562 8.87977 10.2302 8.81844 10.4334 8.95135C10.6428 9.08836 10.7106 9.09876 10.997 9.09707C11.2735 9.09524 11.3836 8.87828 11.4051 8.75035C11.4244 8.63551 11.4027 8.48283 11.1898 8.40755C10.8331 8.28145 10.4673 8.13673 10.208 7.93343C9.61752 7.47026 9.79578 6.40989 10.5745 6.13068C10.6026 5.92045 10.7821 5.75812 11 5.75812C11.2338 5.75812 11.4236 5.94494 11.4292 6.1774C11.568 6.2255 11.7012 6.28611 11.8201 6.34893C12.0661 6.4789 12.1218 6.80692 11.9332 7.01145C11.7988 7.15714 11.5809 7.19131 11.4097 7.09142C11.2355 6.98979 11.0175 6.89271 10.8737 6.93602C10.7593 6.97048 10.7286 7.08913 10.7219 7.12465C10.6989 7.2464 10.6934 7.32059 11.4762 7.59728C12.0375 7.79573 12.3495 8.31634 12.2526 8.8928Z" fill="#6CB549"/>
</g>
<defs>
<clipPath id="clip0_448_2564">
<rect width="14.6667" height="14.6667" fill="white" transform="translate(3.66675 3.66699)"/>
</clipPath>
</defs>
</svg>
