<svg width="26" height="26" viewBox="0 0 26 26" fill="none" xmlns="http://www.w3.org/2000/svg">
<g clip-path="url(#clip0_596_4959)">
<path d="M8.58641 15.3081L9.70403 16.0531C9.93472 16.2071 9.99699 16.5188 9.84331 16.7495C9.68906 16.9811 9.37607 17.0421 9.14656 16.8888L7.53943 15.8174C7.28493 15.6475 7.24111 15.2928 7.44267 15.066C7.68782 14.79 7.84485 14.5991 8.15382 14.3562L6.58855 10.913C6.27583 10.2249 5.49704 9.88005 4.77751 10.1101C4.54247 10.1854 4.39683 10.4204 4.43399 10.6645L5.42941 17.1798C5.5178 17.7573 5.80675 18.2893 6.24368 18.6774L7.94389 20.1891V21.0683C7.94389 21.3456 8.16889 21.5706 8.44612 21.5706H12.4974V15.6068L11.506 15.0285C10.5582 14.4758 9.38729 14.6037 8.58641 15.3081Z" fill="#025787"/>
<path d="M21.2214 10.1101C20.5018 9.88005 19.7231 10.2249 19.4103 10.913L17.8451 14.3562C18.1527 14.598 18.3127 14.7918 18.5562 15.066C18.7579 15.293 18.7138 15.6476 18.4595 15.8174L16.8523 16.8888C16.6228 17.0421 16.3098 16.9812 16.1556 16.7495C16.0019 16.5188 16.0642 16.2071 16.2949 16.0531L17.4125 15.3081C16.6116 14.6037 15.4407 14.4758 14.4929 15.0285L13.5015 15.6068V21.5706H17.5528C17.83 21.5706 18.055 21.3456 18.055 21.0683V20.1891L19.7552 18.6774C20.1921 18.2893 20.4811 17.7573 20.5695 17.1798L21.5649 10.6645C21.6021 10.4204 21.4564 10.1854 21.2214 10.1101Z" fill="#025787"/>
<path d="M18.0057 9.30905C18.2167 8.8028 18.3235 8.26776 18.3235 7.71933C18.3235 5.90428 16.8469 4.42773 15.0319 4.42773C14.2552 4.42773 13.5091 4.71615 12.9999 5.12985C12.4921 4.71718 11.746 4.42773 10.9679 4.42773C9.15282 4.42773 7.67627 5.90428 7.67627 7.71933C7.67627 8.26776 7.78308 8.8028 7.99401 9.30905C8.72459 11.0622 9.93629 12.5605 11.4979 13.6416C12.3947 14.2624 13.6011 14.2645 14.5019 13.6416C16.0635 12.5605 17.2752 11.0622 18.0057 9.30905ZM14.464 10.5358C14.3725 11.0799 13.9953 11.5122 13.5006 11.6904C13.4847 11.9535 13.2669 12.162 12.9999 12.162C12.7527 12.162 12.5477 11.9833 12.5059 11.7482C12.2754 11.7089 12.0655 11.6247 11.802 11.4541C11.5726 11.3056 11.4912 11 11.6322 10.7659C11.7799 10.5206 12.1002 10.4489 12.3376 10.6043C12.5825 10.7644 12.6617 10.7766 12.9965 10.7746C13.3196 10.7724 13.4483 10.5188 13.4734 10.3693C13.496 10.2351 13.4707 10.0566 13.2218 9.96864C12.8048 9.82125 12.3773 9.6521 12.0743 9.41448C11.384 8.87311 11.5924 7.63372 12.5026 7.30737C12.5354 7.06165 12.7452 6.87191 12.9999 6.87191C13.2732 6.87191 13.495 7.09028 13.5015 7.36198C13.6638 7.4182 13.8195 7.48904 13.9585 7.56247C14.2461 7.71438 14.3112 8.09778 14.0906 8.33684C13.9336 8.50712 13.6789 8.54707 13.4788 8.43032C13.2752 8.31152 13.0203 8.19805 12.8523 8.24868C12.7186 8.28896 12.6827 8.42764 12.6748 8.46916C12.6481 8.61145 12.6416 8.69817 13.5565 9.02157C14.2126 9.25353 14.5773 9.86203 14.464 10.5358Z" fill="#025787"/>
</g>
<defs>
<clipPath id="clip0_596_4959">
<rect width="17.1429" height="17.1429" fill="white" transform="translate(4.42871 4.42773)"/>
</clipPath>
</defs>
</svg>
