<svg width="132" height="37" viewBox="0 0 132 37" fill="none" xmlns="http://www.w3.org/2000/svg">
<path d="M9.54279 2.09014C3.86885 5.14579 0 11.2378 0 18.2546C0 26.4347 5.25824 33.3582 12.5047 35.6789C12.4439 35.6317 12.3836 35.5837 12.3238 35.5349C10.4698 33.9902 9.54279 31.5545 9.54279 28.2276V15.4547H4.84975V8.50382H9.54279V2.09014Z" fill="#FCA314"/>
<path d="M27.0403 33.897C32.2171 30.7019 35.6789 24.8919 35.6789 18.2546C35.6789 8.17284 27.6919 0 17.8395 0C17.7389 0 17.6385 0.000851554 17.5383 0.002548V8.50382H26.345V15.4547H17.5383V26.6235C17.5383 29.4752 19.0254 30.901 21.9996 30.901C23.7764 30.901 25.4566 30.5841 27.0403 29.9504V33.897Z" fill="#BAD643"/>
<path d="M59.8569 11.9772H53.9963V27.1839H50.4593V11.9772H44.5986V8.85327H59.8569V11.9772Z" fill="#121425"/>
<path d="M58.6487 23.1821C58.6487 22.3043 58.8897 21.5384 59.3716 20.8843C59.8708 20.2131 60.5593 19.6967 61.4371 19.3353C62.3149 18.9738 63.3218 18.7931 64.4577 18.7931C65.0257 18.7931 65.6023 18.8361 66.1875 18.9222C66.7727 19.0083 67.2805 19.1459 67.7108 19.3353V18.6124C67.7108 17.7518 67.4526 17.0891 66.9362 16.6244C66.4371 16.1597 65.6884 15.9273 64.6901 15.9273C63.95 15.9273 63.2443 16.0564 62.573 16.3146C61.9018 16.5728 61.1961 16.9514 60.456 17.4506L59.3458 15.1786C60.2408 14.5934 61.1531 14.1545 62.0825 13.8619C63.0292 13.5693 64.0188 13.423 65.0515 13.423C66.9793 13.423 68.4767 13.9049 69.5438 14.8688C70.6282 15.8327 71.1704 17.2096 71.1704 18.9996V23.3112C71.1704 23.6727 71.2306 23.9308 71.3511 24.0857C71.4888 24.2407 71.7039 24.3353 71.9965 24.3697V27.1839C71.6867 27.2355 71.4027 27.2785 71.1445 27.313C70.9036 27.3474 70.697 27.3646 70.5249 27.3646C69.8364 27.3646 69.3115 27.2097 68.95 26.8999C68.6058 26.5901 68.3906 26.2114 68.3046 25.7639L68.2271 25.0668C67.6419 25.8241 66.9104 26.4093 66.0326 26.8224C65.1548 27.2355 64.2598 27.4421 63.3476 27.4421C62.4526 27.4421 61.6436 27.2613 60.9207 26.8999C60.215 26.5212 59.6556 26.0135 59.2425 25.3766C58.8467 24.7226 58.6487 23.9911 58.6487 23.1821ZM67.0653 23.8792C67.2547 23.6727 67.4096 23.4661 67.53 23.2596C67.6505 23.053 67.7108 22.8637 67.7108 22.6916V21.3232C67.2977 21.1511 66.8502 21.022 66.3682 20.936C65.8863 20.8327 65.4302 20.7811 64.9999 20.7811C64.1049 20.7811 63.3648 20.979 62.7796 21.3749C62.2116 21.7535 61.9276 22.2613 61.9276 22.8981C61.9276 23.2424 62.0223 23.5694 62.2116 23.8792C62.4009 24.189 62.6763 24.4386 63.0378 24.6279C63.3992 24.8173 63.8295 24.9119 64.3286 24.9119C64.845 24.9119 65.3527 24.8173 65.8519 24.6279C66.351 24.4214 66.7555 24.1718 67.0653 23.8792Z" fill="#121425"/>
<path d="M79.5151 27.4421C78.6545 27.4421 77.8628 27.2613 77.1399 26.8999C76.417 26.5212 75.7888 26.0135 75.2552 25.3766C74.7216 24.7398 74.3086 23.9911 74.016 23.1305C73.7406 22.2699 73.6029 21.3577 73.6029 20.3938C73.6029 19.4127 73.7578 18.5005 74.0676 17.6571C74.3946 16.8137 74.8421 16.0736 75.4101 15.4368C75.9781 14.8 76.6494 14.3094 77.4239 13.9652C78.1984 13.6037 79.0332 13.423 79.9282 13.423C80.9609 13.423 81.8732 13.664 82.6649 14.1459C83.4566 14.6106 84.1021 15.2303 84.6012 16.0048V13.6554H87.6219V32.6831H84.1623V24.8086C83.1296 26.5643 81.5806 27.4421 79.5151 27.4421ZM80.806 24.4988C81.3052 24.4988 81.7527 24.4042 82.1485 24.2148C82.5616 24.0255 82.9317 23.7673 83.2587 23.4403C83.6029 23.0961 83.9042 22.7088 84.1623 22.2785V19.0771C84.0763 18.6984 83.9128 18.3456 83.6718 18.0186C83.448 17.6915 83.1726 17.4076 82.8456 17.1666C82.5358 16.9084 82.2002 16.7105 81.8387 16.5728C81.4773 16.4351 81.1158 16.3662 80.7544 16.3662C80.2208 16.3662 79.7303 16.4781 79.2828 16.7019C78.8525 16.9256 78.4738 17.2354 78.1468 17.6313C77.8198 18.01 77.5702 18.4489 77.3981 18.948C77.226 19.4299 77.1399 19.9463 77.1399 20.4971C77.1399 21.2372 77.2948 21.9084 77.6046 22.5109C77.9144 23.1133 78.3447 23.5952 78.8955 23.9567C79.4463 24.3181 80.0831 24.4988 80.806 24.4988Z" fill="#121425"/>
<path d="M95.7491 27.4421C94.5959 27.4421 93.4943 27.2527 92.4444 26.8741C91.3945 26.4954 90.4908 25.936 89.7335 25.1959L90.9728 22.9498C91.7817 23.6038 92.5735 24.0857 93.348 24.3956C94.1398 24.7054 94.8971 24.8603 95.62 24.8603C96.2912 24.8603 96.8248 24.7398 97.2207 24.4988C97.6338 24.2579 97.8403 23.8964 97.8403 23.4145C97.8403 23.0875 97.7284 22.8379 97.5047 22.6658C97.2809 22.4764 96.9539 22.3129 96.5236 22.1752C96.1105 22.0375 95.6028 21.8826 95.0003 21.7105C94.0021 21.3835 93.1673 21.0651 92.496 20.7553C91.8248 20.4454 91.317 20.0582 90.9728 19.5935C90.6457 19.1115 90.4822 18.5005 90.4822 17.7604C90.4822 16.8654 90.706 16.0995 91.1535 15.4626C91.6182 14.8086 92.2551 14.3008 93.064 13.9394C93.8902 13.5779 94.854 13.3972 95.9556 13.3972C96.9195 13.3972 97.8317 13.5521 98.6923 13.8619C99.5529 14.1545 100.336 14.6364 101.042 15.3077L99.6475 17.5022C98.9591 16.9687 98.305 16.5814 97.6854 16.3404C97.0658 16.0822 96.4375 15.9532 95.8007 15.9532C95.4392 15.9532 95.095 15.9962 94.768 16.0822C94.4582 16.1683 94.2 16.3146 93.9935 16.5211C93.8041 16.7105 93.7095 16.9859 93.7095 17.3473C93.7095 17.6743 93.7955 17.9325 93.9676 18.1218C94.157 18.294 94.4324 18.4489 94.7938 18.5866C95.1725 18.7243 95.6286 18.8792 96.1621 19.0513C97.2465 19.3611 98.1587 19.6795 98.8988 20.0065C99.6561 20.3336 100.224 20.738 100.603 21.22C100.981 21.6847 101.171 22.3301 101.171 23.1563C101.171 24.4988 100.68 25.5488 99.6992 26.3061C98.7181 27.0634 97.4014 27.4421 95.7491 27.4421Z" fill="#121425"/>
<path d="M103.524 27.1839V13.6554H106.983V27.1839H103.524ZM103.524 11.7707V8.33691H106.983V11.7707H103.524Z" fill="#121425"/>
<path d="M131.12 27.1839H127.66V19.5935C127.66 18.5263 127.471 17.7432 127.092 17.244C126.731 16.7277 126.223 16.4695 125.569 16.4695C124.898 16.4695 124.252 16.7363 123.633 17.2699C123.03 17.7862 122.6 18.4661 122.342 19.3095V27.1839H118.882V19.5935C118.882 18.5091 118.693 17.7174 118.314 17.2182C117.953 16.7191 117.445 16.4695 116.791 16.4695C116.12 16.4695 115.474 16.7277 114.855 17.244C114.252 17.7604 113.822 18.4403 113.564 19.2836V27.1839H110.104V13.6554H113.228V16.1597C113.745 15.2819 114.433 14.6106 115.294 14.1459C116.154 13.664 117.144 13.423 118.263 13.423C119.382 13.423 120.251 13.6984 120.87 14.2492C121.507 14.8 121.912 15.4798 122.084 16.2888C122.635 15.3593 123.332 14.6537 124.175 14.1717C125.036 13.6726 125.999 13.423 127.067 13.423C127.91 13.423 128.59 13.5779 129.106 13.8877C129.64 14.1803 130.053 14.5848 130.345 15.1012C130.638 15.6003 130.836 16.1683 130.939 16.8051C131.06 17.442 131.12 18.0874 131.12 18.7415V27.1839Z" fill="#121425"/>
</svg>
