<svg width="22" height="21" viewBox="0 0 22 21" fill="none" xmlns="http://www.w3.org/2000/svg">
<defs>
<linearGradient id="paint0_linear_1_4644" x1="0" y1="10" x2="22.0002" y2="10" gradientUnits="userSpaceOnUse">
<stop stop-color="#9B51E0"/>
<stop offset="1" stop-color="#005BFF"/>
</linearGradient>
</defs>
<path d="M1.99805 0C0.898047 0 0.00976562 0.9 0.00976562 2L0 13.998C0 15.103 0.895 16 2 16H3.99805V20L7.99805 16H8.06836C8.02736 15.672 8 15.339 8 15C8 14.661 8.02736 14.328 8.06836 14H3.99805H2L1.99805 2H17.998V7.26172C18.708 7.44472 19.379 7.72013 19.998 8.07812V2C19.998 0.9 19.098 0 17.998 0H1.99805ZM16 9C12.6981 9 10 11.6981 10 15C10 18.3019 12.6981 21 16 21C19.3019 21 22 18.3019 22 15C22 11.6981 19.3019 9 16 9ZM16 11C18.221 11 20 12.779 20 15C20 17.221 18.221 19 16 19C13.779 19 12 17.221 12 15C12 12.779 13.779 11 16 11ZM15 13V17H17V13H15Z" fill="url(#paint0_linear_1_4644)"/>

</svg>
